solid Exported from Blender-2.92.0
facet normal 1.000000 0.000000 0.000000
outer loop
vertex -0.100000 -0.100000 2.650000
vertex -0.100000 0.100000 2.650000
vertex -0.100000 -0.100000 2.750000
endloop
endfacet
facet normal 1.000000 0.000000 0.000000
outer loop
vertex -0.100000 -0.100000 2.750000
vertex -0.100000 0.100000 2.650000
vertex -0.100000 0.100000 2.750000
endloop
endfacet
facet normal 0.000000 1.000000 0.000000
outer loop
vertex 0.100000 -0.100000 2.650000
vertex -0.100000 -0.100000 2.650000
vertex 0.100000 -0.100000 2.750000
endloop
endfacet
facet normal 0.000000 1.000000 0.000000
outer loop
vertex 0.100000 -0.100000 2.750000
vertex -0.100000 -0.100000 2.650000
vertex -0.100000 -0.100000 2.750000
endloop
endfacet
facet normal -1.000000 0.000000 0.000000
outer loop
vertex 0.100000 0.100000 2.650000
vertex 0.100000 -0.100000 2.650000
vertex 0.100000 0.100000 2.750000
endloop
endfacet
facet normal -1.000000 0.000000 0.000000
outer loop
vertex 0.100000 0.100000 2.750000
vertex 0.100000 -0.100000 2.650000
vertex 0.100000 -0.100000 2.750000
endloop
endfacet
facet normal 0.000000 -1.000000 0.000000
outer loop
vertex -0.100000 0.100000 2.650000
vertex 0.100000 0.100000 2.650000
vertex -0.100000 0.100000 2.750000
endloop
endfacet
facet normal 0.000000 -1.000000 0.000000
outer loop
vertex -0.100000 0.100000 2.750000
vertex 0.100000 0.100000 2.650000
vertex 0.100000 0.100000 2.750000
endloop
endfacet
facet normal 0.000000 0.000000 1.000000
outer loop
vertex -0.900000 -0.900000 0.850000
vertex 0.900000 -0.900000 0.850000
vertex -0.900000 0.900000 0.850000
endloop
endfacet
facet normal 0.000000 0.000000 1.000000
outer loop
vertex -0.900000 0.900000 0.850000
vertex 0.900000 -0.900000 0.850000
vertex 0.900000 0.900000 0.850000
endloop
endfacet
facet normal -1.000000 0.000000 0.000000
outer loop
vertex 0.900000 -0.900000 2.650000
vertex 0.900000 0.900000 2.650000
vertex 0.900000 -0.900000 0.850000
endloop
endfacet
facet normal -1.000000 0.000000 0.000000
outer loop
vertex 0.900000 -0.900000 0.850000
vertex 0.900000 0.900000 2.650000
vertex 0.900000 0.900000 0.850000
endloop
endfacet
facet normal 0.000000 1.000000 0.000000
outer loop
vertex -0.900000 -0.900000 2.650000
vertex 0.900000 -0.900000 2.650000
vertex -0.900000 -0.900000 0.850000
endloop
endfacet
facet normal 0.000000 1.000000 0.000000
outer loop
vertex -0.900000 -0.900000 0.850000
vertex 0.900000 -0.900000 2.650000
vertex 0.900000 -0.900000 0.850000
endloop
endfacet
facet normal 1.000000 0.000000 0.000000
outer loop
vertex -0.900000 0.900000 2.650000
vertex -0.900000 -0.900000 2.650000
vertex -0.900000 0.900000 0.850000
endloop
endfacet
facet normal 1.000000 0.000000 0.000000
outer loop
vertex -0.900000 0.900000 0.850000
vertex -0.900000 -0.900000 2.650000
vertex -0.900000 -0.900000 0.850000
endloop
endfacet
facet normal 0.000000 -1.000000 0.000000
outer loop
vertex 0.900000 0.900000 2.650000
vertex -0.900000 0.900000 2.650000
vertex 0.900000 0.900000 0.850000
endloop
endfacet
facet normal 0.000000 -1.000000 0.000000
outer loop
vertex 0.900000 0.900000 0.850000
vertex -0.900000 0.900000 2.650000
vertex -0.900000 0.900000 0.850000
endloop
endfacet
facet normal 0.000000 0.000000 -1.000000
outer loop
vertex 0.100000 0.100000 2.650000
vertex 0.900000 -0.900000 2.650000
vertex 0.100000 -0.100000 2.650000
endloop
endfacet
facet normal 0.000000 0.000000 -1.000000
outer loop
vertex 0.100000 -0.100000 2.650000
vertex 0.900000 -0.900000 2.650000
vertex -0.900000 -0.900000 2.650000
endloop
endfacet
facet normal 0.000000 0.000000 -1.000000
outer loop
vertex 0.100000 -0.100000 2.650000
vertex -0.900000 -0.900000 2.650000
vertex -0.100000 -0.100000 2.650000
endloop
endfacet
facet normal 0.000000 0.000000 -1.000000
outer loop
vertex -0.100000 -0.100000 2.650000
vertex -0.900000 -0.900000 2.650000
vertex -0.900000 0.900000 2.650000
endloop
endfacet
facet normal 0.000000 0.000000 -1.000000
outer loop
vertex -0.100000 -0.100000 2.650000
vertex -0.900000 0.900000 2.650000
vertex -0.100000 0.100000 2.650000
endloop
endfacet
facet normal 0.000000 0.000000 -1.000000
outer loop
vertex -0.100000 0.100000 2.650000
vertex -0.900000 0.900000 2.650000
vertex 0.100000 0.100000 2.650000
endloop
endfacet
facet normal 0.000000 0.000000 -1.000000
outer loop
vertex 0.100000 0.100000 2.650000
vertex -0.900000 0.900000 2.650000
vertex 0.900000 0.900000 2.650000
endloop
endfacet
facet normal 0.000000 0.000000 -1.000000
outer loop
vertex 0.100000 0.100000 2.650000
vertex 0.900000 0.900000 2.650000
vertex 0.900000 -0.900000 2.650000
endloop
endfacet
facet normal -1.000000 0.000000 0.000000
outer loop
vertex -1.000000 1.000000 0.750000
vertex -1.000000 -1.000000 0.750000
vertex -1.000000 1.000000 2.750000
endloop
endfacet
facet normal -1.000000 0.000000 0.000000
outer loop
vertex -1.000000 1.000000 2.750000
vertex -1.000000 -1.000000 0.750000
vertex -1.000000 -1.000000 2.750000
endloop
endfacet
facet normal 0.000000 1.000000 0.000000
outer loop
vertex 1.000000 1.000000 0.750000
vertex -1.000000 1.000000 0.750000
vertex 1.000000 1.000000 2.750000
endloop
endfacet
facet normal 0.000000 1.000000 0.000000
outer loop
vertex 1.000000 1.000000 2.750000
vertex -1.000000 1.000000 0.750000
vertex -1.000000 1.000000 2.750000
endloop
endfacet
facet normal 1.000000 0.000000 0.000000
outer loop
vertex 1.000000 -1.000000 0.750000
vertex 1.000000 1.000000 0.750000
vertex 1.000000 -1.000000 2.750000
endloop
endfacet
facet normal 1.000000 0.000000 0.000000
outer loop
vertex 1.000000 -1.000000 2.750000
vertex 1.000000 1.000000 0.750000
vertex 1.000000 1.000000 2.750000
endloop
endfacet
facet normal 0.000000 -1.000000 0.000000
outer loop
vertex -1.000000 -1.000000 0.750000
vertex 1.000000 -1.000000 0.750000
vertex -1.000000 -1.000000 2.750000
endloop
endfacet
facet normal 0.000000 -1.000000 0.000000
outer loop
vertex -1.000000 -1.000000 2.750000
vertex 1.000000 -1.000000 0.750000
vertex 1.000000 -1.000000 2.750000
endloop
endfacet
facet normal -0.000003 0.000000 1.000000
outer loop
vertex 0.100000 -0.100000 2.750000
vertex 1.000000 -1.000000 2.750000
vertex 0.100000 0.100000 2.750000
endloop
endfacet
facet normal 0.000000 0.000000 1.000000
outer loop
vertex 0.100000 0.100000 2.750000
vertex 1.000000 -1.000000 2.750000
vertex 1.000000 1.000000 2.750000
endloop
endfacet
facet normal 0.000000 0.000000 1.000000
outer loop
vertex 0.100000 0.100000 2.750000
vertex 1.000000 1.000000 2.750000
vertex -1.000000 1.000000 2.750000
endloop
endfacet
facet normal 0.000000 0.000000 1.000000
outer loop
vertex 0.100000 -0.100000 2.750000
vertex -0.100000 -0.100000 2.750000
vertex 1.000000 -1.000000 2.750000
endloop
endfacet
facet normal 0.000000 0.000000 1.000000
outer loop
vertex 1.000000 -1.000000 2.750000
vertex -0.100000 -0.100000 2.750000
vertex -1.000000 -1.000000 2.750000
endloop
endfacet
facet normal 0.000002 0.000000 1.000000
outer loop
vertex -1.000000 -1.000000 2.750000
vertex -0.100000 -0.100000 2.750000
vertex -0.100000 0.100000 2.750000
endloop
endfacet
facet normal 0.000000 0.000000 1.000000
outer loop
vertex -1.000000 -1.000000 2.750000
vertex -0.100000 0.100000 2.750000
vertex -1.000000 1.000000 2.750000
endloop
endfacet
facet normal 0.000000 0.000000 1.000000
outer loop
vertex -1.000000 1.000000 2.750000
vertex -0.100000 0.100000 2.750000
vertex 0.100000 0.100000 2.750000
endloop
endfacet
facet normal 0.000000 -1.000000 0.000000
outer loop
vertex -10.600000 -4.500000 0.750000
vertex -10.600000 -4.500000 -0.750000
vertex 10.600000 -4.500000 0.750000
endloop
endfacet
facet normal 0.000000 -1.000000 0.000000
outer loop
vertex 10.600000 -4.500000 0.750000
vertex -10.600000 -4.500000 -0.750000
vertex 10.600000 -4.500000 -0.750000
endloop
endfacet
facet normal 0.000000 0.000000 -1.000000
outer loop
vertex -10.600000 4.500000 -0.750000
vertex 10.600000 4.500000 -0.750000
vertex -10.600000 -4.500000 -0.750000
endloop
endfacet
facet normal 0.000000 0.000000 -1.000000
outer loop
vertex -10.600000 -4.500000 -0.750000
vertex 10.600000 4.500000 -0.750000
vertex 10.600000 -4.500000 -0.750000
endloop
endfacet
facet normal 1.000000 0.000000 0.000000
outer loop
vertex 10.600000 4.500000 -0.750000
vertex 10.600000 4.500000 0.750000
vertex 10.600000 -4.500000 -0.750000
endloop
endfacet
facet normal 1.000000 0.000000 0.000000
outer loop
vertex 10.600000 -4.500000 -0.750000
vertex 10.600000 4.500000 0.750000
vertex 10.600000 -4.500000 0.750000
endloop
endfacet
facet normal 0.000000 0.000000 1.000000
outer loop
vertex -1.000000 1.000000 0.750000
vertex -10.600000 -4.500000 0.750000
vertex -1.000000 -1.000000 0.750000
endloop
endfacet
facet normal 0.000000 0.000000 1.000000
outer loop
vertex -1.000000 -1.000000 0.750000
vertex -10.600000 -4.500000 0.750000
vertex 10.600000 -4.500000 0.750000
endloop
endfacet
facet normal 0.000000 0.000000 1.000000
outer loop
vertex -1.000000 -1.000000 0.750000
vertex 10.600000 -4.500000 0.750000
vertex 1.000000 -1.000000 0.750000
endloop
endfacet
facet normal 0.000000 0.000000 1.000000
outer loop
vertex 1.000000 -1.000000 0.750000
vertex 10.600000 -4.500000 0.750000
vertex 1.000000 1.000000 0.750000
endloop
endfacet
facet normal 0.000000 0.000000 1.000000
outer loop
vertex 1.000000 1.000000 0.750000
vertex 10.600000 -4.500000 0.750000
vertex 10.600000 4.500000 0.750000
endloop
endfacet
facet normal 0.000000 0.000000 1.000000
outer loop
vertex 1.000000 1.000000 0.750000
vertex 10.600000 4.500000 0.750000
vertex -10.600000 4.500000 0.750000
endloop
endfacet
facet normal 0.000000 0.000000 1.000000
outer loop
vertex -10.600000 -4.500000 0.750000
vertex -1.000000 1.000000 0.750000
vertex -10.600000 4.500000 0.750000
endloop
endfacet
facet normal 0.000000 0.000000 1.000000
outer loop
vertex -10.600000 4.500000 0.750000
vertex -1.000000 1.000000 0.750000
vertex 1.000000 1.000000 0.750000
endloop
endfacet
facet normal -1.000000 0.000000 0.000000
outer loop
vertex -10.600000 4.500000 0.750000
vertex -10.600000 4.500000 -0.750000
vertex -10.600000 -4.500000 0.750000
endloop
endfacet
facet normal -1.000000 0.000000 0.000000
outer loop
vertex -10.600000 -4.500000 0.750000
vertex -10.600000 4.500000 -0.750000
vertex -10.600000 -4.500000 -0.750000
endloop
endfacet
facet normal 0.000000 1.000000 0.000000
outer loop
vertex -10.600000 4.500000 -0.750000
vertex -10.600000 4.500000 0.750000
vertex 10.600000 4.500000 -0.750000
endloop
endfacet
facet normal 0.000000 1.000000 0.000000
outer loop
vertex 10.600000 4.500000 -0.750000
vertex -10.600000 4.500000 0.750000
vertex 10.600000 4.500000 0.750000
endloop
endfacet
endsolid Exported from Blender-2.92.0
