Point(1) = {0.0, 0.0, 0.0};
Point(2) = {152.1170752, 0.0, 0.0};
Point(3) = {152.1170752, 27.0, 0.0};
Point(4) = {0.0, 27.0, 0.0};
Point(5) = {0.0, 0.0, 13.058};
Point(6) = {152.1170752, 0.0, 13.058};
Point(7) = {152.1170752, 27.0, 13.058};
Point(8) = {0.0, 27.0, 13.058};
Point(9) = {194.9756128, 0.0, 0.0};
Point(10) = {194.9756128, 0.0, 13.058};
Point(11) = {194.9756128, 27.0, 0.0};
Point(12) = {194.9756128, 27.0, 13.058};
Point(13) = {-21.4292688, 27.0, 0.0};
Point(14) = {-21.4292688, 27.0, 13.058};
Point(15) = {-21.4292688, 0.0, 0.0};
Point(16) = {-21.4292688, 0.0, 13.058};
Point(17) = {41.4585376, 9.0, 5.721};
Point(18) = {41.4585376, 9.0, 7.221};
Point(19) = {41.4585376, 18.0, 5.721};
Point(20) = {41.4585376, 18.0, 7.221};
Point(21) = {51.0585376, 12.5, 7.221};
Point(22) = {51.0585376, 12.5, 9.221};
Point(23) = {51.0585376, 14.5, 7.221};
Point(24) = {51.0585376, 14.5, 9.221};
Point(25) = {51.1585376, 12.6, 7.321};
Point(26) = {51.1585376, 12.6, 9.121};
Point(27) = {51.1585376, 14.4, 7.321};
Point(28) = {51.1585376, 14.4, 9.121};
Point(29) = {51.9585376, 13.4, 9.121};
Point(30) = {51.9585376, 13.4, 9.221};
Point(31) = {51.9585376, 13.6, 9.121};
Point(32) = {51.9585376, 13.6, 9.221};
Point(33) = {52.1585376, 13.4, 9.121};
Point(34) = {52.1585376, 13.4, 9.221};
Point(35) = {52.1585376, 13.6, 9.121};
Point(36) = {52.1585376, 13.6, 9.221};
Point(37) = {52.9585376, 12.6, 7.321};
Point(38) = {52.9585376, 12.6, 9.121};
Point(39) = {52.9585376, 14.4, 7.321};
Point(40) = {52.9585376, 14.4, 9.121};
Point(41) = {53.0585376, 12.5, 7.221};
Point(42) = {53.0585376, 12.5, 9.221};
Point(43) = {53.0585376, 14.5, 7.221};
Point(44) = {53.0585376, 14.5, 9.221};
Point(45) = {62.6585376, 9.0, 5.721};
Point(46) = {62.6585376, 9.0, 7.221};
Point(47) = {62.6585376, 18.0, 5.721};
Point(48) = {62.6585376, 18.0, 7.221};
Point(49) = {64.05853760000001, 9.0, 5.721};
Point(50) = {64.05853760000001, 9.0, 7.221};
Point(51) = {64.05853760000001, 18.0, 5.721};
Point(52) = {64.05853760000001, 18.0, 7.221};
Point(53) = {73.6585376, 12.5, 7.221};
Point(54) = {73.6585376, 12.5, 9.221};
Point(55) = {73.6585376, 14.5, 7.221};
Point(56) = {73.6585376, 14.5, 9.221};
Point(57) = {73.7585376, 12.6, 7.321};
Point(58) = {73.7585376, 12.6, 9.121};
Point(59) = {73.7585376, 14.4, 7.321};
Point(60) = {73.7585376, 14.4, 9.121};
Point(61) = {74.55853760000001, 13.4, 9.121};
Point(62) = {74.55853760000001, 13.4, 9.221};
Point(63) = {74.55853760000001, 13.6, 9.121};
Point(64) = {74.55853760000001, 13.6, 9.221};
Point(65) = {74.7585376, 13.4, 9.121};
Point(66) = {74.7585376, 13.4, 9.221};
Point(67) = {74.7585376, 13.6, 9.121};
Point(68) = {74.7585376, 13.6, 9.221};
Point(69) = {75.55853760000001, 12.6, 7.321};
Point(70) = {75.55853760000001, 12.6, 9.121};
Point(71) = {75.55853760000001, 14.4, 7.321};
Point(72) = {75.55853760000001, 14.4, 9.121};
Point(73) = {75.6585376, 12.5, 7.221};
Point(74) = {75.6585376, 12.5, 9.221};
Point(75) = {75.6585376, 14.5, 7.221};
Point(76) = {75.6585376, 14.5, 9.221};
Point(77) = {85.2585376, 9.0, 5.721};
Point(78) = {85.2585376, 9.0, 7.221};
Point(79) = {85.2585376, 18.0, 5.721};
Point(80) = {85.2585376, 18.0, 7.221};
Point(81) = {86.65853760000002, 9.0, 5.721};
Point(82) = {86.65853760000002, 9.0, 7.221};
Point(83) = {86.65853760000002, 18.0, 5.721};
Point(84) = {86.65853760000002, 18.0, 7.221};
Point(85) = {96.25853760000001, 12.5, 7.221};
Point(86) = {96.25853760000001, 12.5, 9.221};
Point(87) = {96.25853760000001, 14.5, 7.221};
Point(88) = {96.25853760000001, 14.5, 9.221};
Point(89) = {96.3585376, 12.6, 7.321};
Point(90) = {96.3585376, 12.6, 9.121};
Point(91) = {96.3585376, 14.4, 7.321};
Point(92) = {96.3585376, 14.4, 9.121};
Point(93) = {97.15853760000002, 13.4, 9.121};
Point(94) = {97.15853760000002, 13.4, 9.221};
Point(95) = {97.15853760000002, 13.6, 9.121};
Point(96) = {97.15853760000002, 13.6, 9.221};
Point(97) = {97.3585376, 13.4, 9.121};
Point(98) = {97.3585376, 13.4, 9.221};
Point(99) = {97.3585376, 13.6, 9.121};
Point(100) = {97.3585376, 13.6, 9.221};
Point(101) = {98.15853760000002, 12.6, 7.321};
Point(102) = {98.15853760000002, 12.6, 9.121};
Point(103) = {98.15853760000002, 14.4, 7.321};
Point(104) = {98.15853760000002, 14.4, 9.121};
Point(105) = {98.25853760000001, 12.5, 7.221};
Point(106) = {98.25853760000001, 12.5, 9.221};
Point(107) = {98.25853760000001, 14.5, 7.221};
Point(108) = {98.25853760000001, 14.5, 9.221};
Point(109) = {107.8585376, 9.0, 5.721};
Point(110) = {107.8585376, 9.0, 7.221};
Point(111) = {107.8585376, 18.0, 5.721};
Point(112) = {107.8585376, 18.0, 7.221};
Curve(1) = {4, 1};
Curve(2) = {1, 2};
Curve(3) = {2, 3};
Curve(4) = {3, 4};
Curve(5) = {8, 5};
Curve(6) = {5, 6};
Curve(7) = {6, 7};
Curve(8) = {7, 8};
Curve(9) = {5, 1};
Curve(10) = {2, 6};
Curve(11) = {10, 9};
Curve(12) = {9, 11};
Curve(13) = {11, 12};
Curve(14) = {12, 10};
Curve(15) = {9, 2};
Curve(16) = {3, 11};
Curve(17) = {10, 6};
Curve(18) = {7, 12};
Curve(19) = {3, 7};
Curve(20) = {8, 4};
Curve(21) = {16, 15};
Curve(22) = {15, 13};
Curve(23) = {13, 14};
Curve(24) = {14, 16};
Curve(25) = {15, 1};
Curve(26) = {4, 13};
Curve(27) = {16, 5};
Curve(28) = {8, 14};
Curve(29) = {30, 29};
Curve(30) = {29, 31};
Curve(31) = {31, 30};
Curve(32) = {32, 30};
Curve(33) = {31, 32};
Curve(34) = {34, 33};
Curve(35) = {33, 29};
Curve(36) = {29, 34};
Curve(37) = {30, 34};
Curve(38) = {36, 35};
Curve(39) = {35, 33};
Curve(40) = {33, 36};
Curve(41) = {34, 36};
Curve(42) = {31, 35};
Curve(43) = {35, 32};
Curve(44) = {36, 32};
Curve(45) = {27, 25};
Curve(46) = {25, 37};
Curve(47) = {37, 27};
Curve(48) = {39, 27};
Curve(49) = {37, 39};
Curve(50) = {37, 38};
Curve(51) = {38, 40};
Curve(52) = {40, 37};
Curve(53) = {40, 39};
Curve(54) = {25, 26};
Curve(55) = {26, 38};
Curve(56) = {38, 25};
Curve(57) = {27, 28};
Curve(58) = {28, 26};
Curve(59) = {26, 27};
Curve(60) = {40, 28};
Curve(61) = {28, 39};
Curve(62) = {35, 38};
Curve(63) = {38, 33};
Curve(64) = {26, 33};
Curve(65) = {26, 29};
Curve(66) = {28, 29};
Curve(67) = {28, 31};
Curve(68) = {28, 35};
Curve(69) = {40, 35};
Curve(70) = {24, 23};
Curve(71) = {23, 21};
Curve(72) = {21, 24};
Curve(73) = {22, 24};
Curve(74) = {21, 22};
Curve(75) = {44, 43};
Curve(76) = {43, 23};
Curve(77) = {23, 44};
Curve(78) = {24, 44};
Curve(79) = {42, 41};
Curve(80) = {41, 43};
Curve(81) = {43, 42};
Curve(82) = {44, 42};
Curve(83) = {21, 41};
Curve(84) = {41, 22};
Curve(85) = {42, 22};
Curve(86) = {34, 42};
Curve(87) = {42, 36};
Curve(88) = {44, 36};
Curve(89) = {24, 36};
Curve(90) = {30, 42};
Curve(91) = {30, 22};
Curve(92) = {32, 22};
Curve(93) = {32, 24};
Curve(94) = {46, 18};
Curve(95) = {18, 17};
Curve(96) = {17, 46};
Curve(97) = {45, 46};
Curve(98) = {17, 45};
Curve(99) = {17, 19};
Curve(100) = {19, 47};
Curve(101) = {47, 17};
Curve(102) = {47, 45};
Curve(103) = {47, 48};
Curve(104) = {48, 45};
Curve(105) = {48, 46};
Curve(106) = {23, 18};
Curve(107) = {18, 21};
Curve(108) = {46, 21};
Curve(109) = {46, 41};
Curve(110) = {46, 43};
Curve(111) = {48, 43};
Curve(112) = {20, 43};
Curve(113) = {48, 20};
Curve(114) = {20, 18};
Curve(115) = {23, 20};
Curve(116) = {20, 19};
Curve(117) = {19, 18};
Curve(118) = {20, 47};
Curve(119) = {62, 61};
Curve(120) = {61, 63};
Curve(121) = {63, 62};
Curve(122) = {64, 62};
Curve(123) = {63, 64};
Curve(124) = {66, 65};
Curve(125) = {65, 61};
Curve(126) = {61, 66};
Curve(127) = {62, 66};
Curve(128) = {68, 67};
Curve(129) = {67, 65};
Curve(130) = {65, 68};
Curve(131) = {66, 68};
Curve(132) = {63, 67};
Curve(133) = {67, 64};
Curve(134) = {68, 64};
Curve(135) = {59, 57};
Curve(136) = {57, 69};
Curve(137) = {69, 59};
Curve(138) = {71, 59};
Curve(139) = {69, 71};
Curve(140) = {69, 70};
Curve(141) = {70, 72};
Curve(142) = {72, 69};
Curve(143) = {72, 71};
Curve(144) = {57, 58};
Curve(145) = {58, 70};
Curve(146) = {70, 57};
Curve(147) = {59, 60};
Curve(148) = {60, 58};
Curve(149) = {58, 59};
Curve(150) = {72, 60};
Curve(151) = {60, 71};
Curve(152) = {67, 70};
Curve(153) = {70, 65};
Curve(154) = {58, 65};
Curve(155) = {58, 61};
Curve(156) = {60, 61};
Curve(157) = {60, 63};
Curve(158) = {60, 67};
Curve(159) = {72, 67};
Curve(160) = {56, 55};
Curve(161) = {55, 53};
Curve(162) = {53, 56};
Curve(163) = {54, 56};
Curve(164) = {53, 54};
Curve(165) = {76, 75};
Curve(166) = {75, 55};
Curve(167) = {55, 76};
Curve(168) = {56, 76};
Curve(169) = {74, 73};
Curve(170) = {73, 75};
Curve(171) = {75, 74};
Curve(172) = {76, 74};
Curve(173) = {53, 73};
Curve(174) = {73, 54};
Curve(175) = {74, 54};
Curve(176) = {66, 74};
Curve(177) = {74, 68};
Curve(178) = {76, 68};
Curve(179) = {56, 68};
Curve(180) = {62, 74};
Curve(181) = {62, 54};
Curve(182) = {64, 54};
Curve(183) = {64, 56};
Curve(184) = {78, 50};
Curve(185) = {50, 49};
Curve(186) = {49, 78};
Curve(187) = {77, 78};
Curve(188) = {49, 77};
Curve(189) = {49, 51};
Curve(190) = {51, 79};
Curve(191) = {79, 49};
Curve(192) = {79, 77};
Curve(193) = {79, 80};
Curve(194) = {80, 77};
Curve(195) = {80, 78};
Curve(196) = {55, 50};
Curve(197) = {50, 53};
Curve(198) = {78, 53};
Curve(199) = {78, 73};
Curve(200) = {78, 75};
Curve(201) = {80, 75};
Curve(202) = {52, 75};
Curve(203) = {80, 52};
Curve(204) = {52, 50};
Curve(205) = {55, 52};
Curve(206) = {52, 51};
Curve(207) = {51, 50};
Curve(208) = {52, 79};
Curve(209) = {94, 93};
Curve(210) = {93, 95};
Curve(211) = {95, 94};
Curve(212) = {96, 94};
Curve(213) = {95, 96};
Curve(214) = {98, 97};
Curve(215) = {97, 93};
Curve(216) = {93, 98};
Curve(217) = {94, 98};
Curve(218) = {100, 99};
Curve(219) = {99, 97};
Curve(220) = {97, 100};
Curve(221) = {98, 100};
Curve(222) = {95, 99};
Curve(223) = {99, 96};
Curve(224) = {100, 96};
Curve(225) = {91, 89};
Curve(226) = {89, 101};
Curve(227) = {101, 91};
Curve(228) = {103, 91};
Curve(229) = {101, 103};
Curve(230) = {101, 102};
Curve(231) = {102, 104};
Curve(232) = {104, 101};
Curve(233) = {104, 103};
Curve(234) = {89, 90};
Curve(235) = {90, 102};
Curve(236) = {102, 89};
Curve(237) = {91, 92};
Curve(238) = {92, 90};
Curve(239) = {90, 91};
Curve(240) = {104, 92};
Curve(241) = {92, 103};
Curve(242) = {99, 102};
Curve(243) = {102, 97};
Curve(244) = {90, 97};
Curve(245) = {90, 93};
Curve(246) = {92, 93};
Curve(247) = {92, 95};
Curve(248) = {92, 99};
Curve(249) = {104, 99};
Curve(250) = {88, 87};
Curve(251) = {87, 85};
Curve(252) = {85, 88};
Curve(253) = {86, 88};
Curve(254) = {85, 86};
Curve(255) = {108, 107};
Curve(256) = {107, 87};
Curve(257) = {87, 108};
Curve(258) = {88, 108};
Curve(259) = {106, 105};
Curve(260) = {105, 107};
Curve(261) = {107, 106};
Curve(262) = {108, 106};
Curve(263) = {85, 105};
Curve(264) = {105, 86};
Curve(265) = {106, 86};
Curve(266) = {98, 106};
Curve(267) = {106, 100};
Curve(268) = {108, 100};
Curve(269) = {88, 100};
Curve(270) = {94, 106};
Curve(271) = {94, 86};
Curve(272) = {96, 86};
Curve(273) = {96, 88};
Curve(274) = {110, 82};
Curve(275) = {82, 81};
Curve(276) = {81, 110};
Curve(277) = {109, 110};
Curve(278) = {81, 109};
Curve(279) = {81, 83};
Curve(280) = {83, 111};
Curve(281) = {111, 81};
Curve(282) = {111, 109};
Curve(283) = {111, 112};
Curve(284) = {112, 109};
Curve(285) = {112, 110};
Curve(286) = {87, 82};
Curve(287) = {82, 85};
Curve(288) = {110, 85};
Curve(289) = {110, 105};
Curve(290) = {110, 107};
Curve(291) = {112, 107};
Curve(292) = {84, 107};
Curve(293) = {112, 84};
Curve(294) = {84, 82};
Curve(295) = {87, 84};
Curve(296) = {84, 83};
Curve(297) = {83, 82};
Curve(298) = {84, 111};
Curve Loop(1) = {1, 2, 3, 4};
Curve Loop(2) = {5, 6, 7, 8};
Curve Loop(3) = {9, 2, 10, -6};
Curve Loop(4) = {11, 12, 13, 14};
Curve Loop(5) = {15, 3, 16, -12};
Curve Loop(6) = {17, 7, 18, 14};
Curve Loop(7) = {-10, 3, 19, -7};
Curve Loop(8) = {-10, -15, -11, 17};
Curve Loop(9) = {-19, 16, 13, -18};
Curve Loop(10) = {20, -4, 19, 8};
Curve Loop(11) = {21, 22, 23, 24};
Curve Loop(12) = {25, -1, 26, -22};
Curve Loop(13) = {27, -5, 28, 24};
Curve Loop(14) = {9, -1, -20, 5};
Curve Loop(15) = {9, -25, -21, 27};
Curve Loop(16) = {20, 26, 23, -28};
Curve Loop(17) = {29, 30, 31};
Curve Loop(18) = {32, -31, 33};
Curve Loop(19) = {34, 35, 36};
Curve Loop(20) = {37, -36, -29};
Curve Loop(21) = {38, 39, 40};
Curve Loop(22) = {41, -40, -34};
Curve Loop(23) = {-33, 42, 43};
Curve Loop(24) = {44, -43, -38};
Curve Loop(25) = {45, 46, 47};
Curve Loop(26) = {48, -47, 49};
Curve Loop(27) = {50, 51, 52};
Curve Loop(28) = {-49, -52, 53};
Curve Loop(29) = {54, 55, 56};
Curve Loop(30) = {-46, -56, -50};
Curve Loop(31) = {57, 58, 59};
Curve Loop(32) = {-45, -59, -54};
Curve Loop(33) = {-53, 60, 61};
Curve Loop(34) = {-48, -61, -57};
Curve Loop(35) = {-39, 62, 63};
Curve Loop(36) = {64, -63, -55};
Curve Loop(37) = {-35, -64, 65};
Curve Loop(38) = {66, -65, -58};
Curve Loop(39) = {-30, -66, 67};
Curve Loop(40) = {-42, -67, 68};
Curve Loop(41) = {69, -68, -60};
Curve Loop(42) = {-62, -69, -51};
Curve Loop(43) = {70, 71, 72};
Curve Loop(44) = {73, -72, 74};
Curve Loop(45) = {75, 76, 77};
Curve Loop(46) = {78, -77, -70};
Curve Loop(47) = {79, 80, 81};
Curve Loop(48) = {82, -81, -75};
Curve Loop(49) = {-74, 83, 84};
Curve Loop(50) = {85, -84, -79};
Curve Loop(51) = {-41, 86, 87};
Curve Loop(52) = {88, -87, -82};
Curve Loop(53) = {89, -88, -78};
Curve Loop(54) = {-86, -37, 90};
Curve Loop(55) = {-85, -90, 91};
Curve Loop(56) = {92, -91, -32};
Curve Loop(57) = {-73, -92, 93};
Curve Loop(58) = {-89, -93, -44};
Curve Loop(59) = {94, 95, 96};
Curve Loop(60) = {97, -96, 98};
Curve Loop(61) = {99, 100, 101};
Curve Loop(62) = {-98, -101, 102};
Curve Loop(63) = {-102, 103, 104};
Curve Loop(64) = {-97, -104, 105};
Curve Loop(65) = {-71, 106, 107};
Curve Loop(66) = {108, -107, -94};
Curve Loop(67) = {-83, -108, 109};
Curve Loop(68) = {-80, -109, 110};
Curve Loop(69) = {111, -110, -105};
Curve Loop(70) = {112, -111, 113};
Curve Loop(71) = {114, -106, 115};
Curve Loop(72) = {-112, -115, -76};
Curve Loop(73) = {-114, 116, 117};
Curve Loop(74) = {-95, -117, -99};
Curve Loop(75) = {-100, -116, 118};
Curve Loop(76) = {-103, -118, -113};
Curve Loop(77) = {119, 120, 121};
Curve Loop(78) = {122, -121, 123};
Curve Loop(79) = {124, 125, 126};
Curve Loop(80) = {127, -126, -119};
Curve Loop(81) = {128, 129, 130};
Curve Loop(82) = {131, -130, -124};
Curve Loop(83) = {-123, 132, 133};
Curve Loop(84) = {134, -133, -128};
Curve Loop(85) = {135, 136, 137};
Curve Loop(86) = {138, -137, 139};
Curve Loop(87) = {140, 141, 142};
Curve Loop(88) = {-139, -142, 143};
Curve Loop(89) = {144, 145, 146};
Curve Loop(90) = {-136, -146, -140};
Curve Loop(91) = {147, 148, 149};
Curve Loop(92) = {-135, -149, -144};
Curve Loop(93) = {-143, 150, 151};
Curve Loop(94) = {-138, -151, -147};
Curve Loop(95) = {-129, 152, 153};
Curve Loop(96) = {154, -153, -145};
Curve Loop(97) = {-125, -154, 155};
Curve Loop(98) = {156, -155, -148};
Curve Loop(99) = {-120, -156, 157};
Curve Loop(100) = {-132, -157, 158};
Curve Loop(101) = {159, -158, -150};
Curve Loop(102) = {-152, -159, -141};
Curve Loop(103) = {160, 161, 162};
Curve Loop(104) = {163, -162, 164};
Curve Loop(105) = {165, 166, 167};
Curve Loop(106) = {168, -167, -160};
Curve Loop(107) = {169, 170, 171};
Curve Loop(108) = {172, -171, -165};
Curve Loop(109) = {-164, 173, 174};
Curve Loop(110) = {175, -174, -169};
Curve Loop(111) = {-131, 176, 177};
Curve Loop(112) = {178, -177, -172};
Curve Loop(113) = {179, -178, -168};
Curve Loop(114) = {-176, -127, 180};
Curve Loop(115) = {-175, -180, 181};
Curve Loop(116) = {182, -181, -122};
Curve Loop(117) = {-163, -182, 183};
Curve Loop(118) = {-179, -183, -134};
Curve Loop(119) = {184, 185, 186};
Curve Loop(120) = {187, -186, 188};
Curve Loop(121) = {189, 190, 191};
Curve Loop(122) = {-188, -191, 192};
Curve Loop(123) = {-192, 193, 194};
Curve Loop(124) = {-187, -194, 195};
Curve Loop(125) = {-161, 196, 197};
Curve Loop(126) = {198, -197, -184};
Curve Loop(127) = {-173, -198, 199};
Curve Loop(128) = {-170, -199, 200};
Curve Loop(129) = {201, -200, -195};
Curve Loop(130) = {202, -201, 203};
Curve Loop(131) = {204, -196, 205};
Curve Loop(132) = {-202, -205, -166};
Curve Loop(133) = {-204, 206, 207};
Curve Loop(134) = {-185, -207, -189};
Curve Loop(135) = {-190, -206, 208};
Curve Loop(136) = {-193, -208, -203};
Curve Loop(137) = {209, 210, 211};
Curve Loop(138) = {212, -211, 213};
Curve Loop(139) = {214, 215, 216};
Curve Loop(140) = {217, -216, -209};
Curve Loop(141) = {218, 219, 220};
Curve Loop(142) = {221, -220, -214};
Curve Loop(143) = {-213, 222, 223};
Curve Loop(144) = {224, -223, -218};
Curve Loop(145) = {225, 226, 227};
Curve Loop(146) = {228, -227, 229};
Curve Loop(147) = {230, 231, 232};
Curve Loop(148) = {-229, -232, 233};
Curve Loop(149) = {234, 235, 236};
Curve Loop(150) = {-226, -236, -230};
Curve Loop(151) = {237, 238, 239};
Curve Loop(152) = {-225, -239, -234};
Curve Loop(153) = {-233, 240, 241};
Curve Loop(154) = {-228, -241, -237};
Curve Loop(155) = {-219, 242, 243};
Curve Loop(156) = {244, -243, -235};
Curve Loop(157) = {-215, -244, 245};
Curve Loop(158) = {246, -245, -238};
Curve Loop(159) = {-210, -246, 247};
Curve Loop(160) = {-222, -247, 248};
Curve Loop(161) = {249, -248, -240};
Curve Loop(162) = {-242, -249, -231};
Curve Loop(163) = {250, 251, 252};
Curve Loop(164) = {253, -252, 254};
Curve Loop(165) = {255, 256, 257};
Curve Loop(166) = {258, -257, -250};
Curve Loop(167) = {259, 260, 261};
Curve Loop(168) = {262, -261, -255};
Curve Loop(169) = {-254, 263, 264};
Curve Loop(170) = {265, -264, -259};
Curve Loop(171) = {-221, 266, 267};
Curve Loop(172) = {268, -267, -262};
Curve Loop(173) = {269, -268, -258};
Curve Loop(174) = {-266, -217, 270};
Curve Loop(175) = {-265, -270, 271};
Curve Loop(176) = {272, -271, -212};
Curve Loop(177) = {-253, -272, 273};
Curve Loop(178) = {-269, -273, -224};
Curve Loop(179) = {274, 275, 276};
Curve Loop(180) = {277, -276, 278};
Curve Loop(181) = {279, 280, 281};
Curve Loop(182) = {-278, -281, 282};
Curve Loop(183) = {-282, 283, 284};
Curve Loop(184) = {-277, -284, 285};
Curve Loop(185) = {-251, 286, 287};
Curve Loop(186) = {288, -287, -274};
Curve Loop(187) = {-263, -288, 289};
Curve Loop(188) = {-260, -289, 290};
Curve Loop(189) = {291, -290, -285};
Curve Loop(190) = {292, -291, 293};
Curve Loop(191) = {294, -286, 295};
Curve Loop(192) = {-292, -295, -256};
Curve Loop(193) = {-294, 296, 297};
Curve Loop(194) = {-275, -297, -279};
Curve Loop(195) = {-280, -296, 298};
Curve Loop(196) = {-283, -298, -293};
Plane Surface(1) = {1};
Plane Surface(2) = {2};
Plane Surface(3) = {3};
Plane Surface(4) = {4};
Plane Surface(5) = {5};
Plane Surface(6) = {6};
Plane Surface(7) = {7};
Plane Surface(8) = {8};
Plane Surface(9) = {9};
Plane Surface(10) = {10};
Plane Surface(11) = {11};
Plane Surface(12) = {12};
Plane Surface(13) = {13};
Plane Surface(14) = {14};
Plane Surface(15) = {15};
Plane Surface(16) = {16};
Plane Surface(17) = {17};
Plane Surface(18) = {18};
Plane Surface(19) = {19};
Plane Surface(20) = {20};
Plane Surface(21) = {21};
Plane Surface(22) = {22};
Plane Surface(23) = {23};
Plane Surface(24) = {24};
Plane Surface(25) = {25};
Plane Surface(26) = {26};
Plane Surface(27) = {27};
Plane Surface(28) = {28};
Plane Surface(29) = {29};
Plane Surface(30) = {30};
Plane Surface(31) = {31};
Plane Surface(32) = {32};
Plane Surface(33) = {33};
Plane Surface(34) = {34};
Plane Surface(35) = {35};
Plane Surface(36) = {36};
Plane Surface(37) = {37};
Plane Surface(38) = {38};
Plane Surface(39) = {39};
Plane Surface(40) = {40};
Plane Surface(41) = {41};
Plane Surface(42) = {42};
Plane Surface(43) = {43};
Plane Surface(44) = {44};
Plane Surface(45) = {45};
Plane Surface(46) = {46};
Plane Surface(47) = {47};
Plane Surface(48) = {48};
Plane Surface(49) = {49};
Plane Surface(50) = {50};
Plane Surface(51) = {51};
Plane Surface(52) = {52};
Plane Surface(53) = {53};
Plane Surface(54) = {54};
Plane Surface(55) = {55};
Plane Surface(56) = {56};
Plane Surface(57) = {57};
Plane Surface(58) = {58};
Plane Surface(59) = {59};
Plane Surface(60) = {60};
Plane Surface(61) = {61};
Plane Surface(62) = {62};
Plane Surface(63) = {63};
Plane Surface(64) = {64};
Plane Surface(65) = {65};
Plane Surface(66) = {66};
Plane Surface(67) = {67};
Plane Surface(68) = {68};
Plane Surface(69) = {69};
Plane Surface(70) = {70};
Plane Surface(71) = {71};
Plane Surface(72) = {72};
Plane Surface(73) = {73};
Plane Surface(74) = {74};
Plane Surface(75) = {75};
Plane Surface(76) = {76};
Plane Surface(77) = {77};
Plane Surface(78) = {78};
Plane Surface(79) = {79};
Plane Surface(80) = {80};
Plane Surface(81) = {81};
Plane Surface(82) = {82};
Plane Surface(83) = {83};
Plane Surface(84) = {84};
Plane Surface(85) = {85};
Plane Surface(86) = {86};
Plane Surface(87) = {87};
Plane Surface(88) = {88};
Plane Surface(89) = {89};
Plane Surface(90) = {90};
Plane Surface(91) = {91};
Plane Surface(92) = {92};
Plane Surface(93) = {93};
Plane Surface(94) = {94};
Plane Surface(95) = {95};
Plane Surface(96) = {96};
Plane Surface(97) = {97};
Plane Surface(98) = {98};
Plane Surface(99) = {99};
Plane Surface(100) = {100};
Plane Surface(101) = {101};
Plane Surface(102) = {102};
Plane Surface(103) = {103};
Plane Surface(104) = {104};
Plane Surface(105) = {105};
Plane Surface(106) = {106};
Plane Surface(107) = {107};
Plane Surface(108) = {108};
Plane Surface(109) = {109};
Plane Surface(110) = {110};
Plane Surface(111) = {111};
Plane Surface(112) = {112};
Plane Surface(113) = {113};
Plane Surface(114) = {114};
Plane Surface(115) = {115};
Plane Surface(116) = {116};
Plane Surface(117) = {117};
Plane Surface(118) = {118};
Plane Surface(119) = {119};
Plane Surface(120) = {120};
Plane Surface(121) = {121};
Plane Surface(122) = {122};
Plane Surface(123) = {123};
Plane Surface(124) = {124};
Plane Surface(125) = {125};
Plane Surface(126) = {126};
Plane Surface(127) = {127};
Plane Surface(128) = {128};
Plane Surface(129) = {129};
Plane Surface(130) = {130};
Plane Surface(131) = {131};
Plane Surface(132) = {132};
Plane Surface(133) = {133};
Plane Surface(134) = {134};
Plane Surface(135) = {135};
Plane Surface(136) = {136};
Plane Surface(137) = {137};
Plane Surface(138) = {138};
Plane Surface(139) = {139};
Plane Surface(140) = {140};
Plane Surface(141) = {141};
Plane Surface(142) = {142};
Plane Surface(143) = {143};
Plane Surface(144) = {144};
Plane Surface(145) = {145};
Plane Surface(146) = {146};
Plane Surface(147) = {147};
Plane Surface(148) = {148};
Plane Surface(149) = {149};
Plane Surface(150) = {150};
Plane Surface(151) = {151};
Plane Surface(152) = {152};
Plane Surface(153) = {153};
Plane Surface(154) = {154};
Plane Surface(155) = {155};
Plane Surface(156) = {156};
Plane Surface(157) = {157};
Plane Surface(158) = {158};
Plane Surface(159) = {159};
Plane Surface(160) = {160};
Plane Surface(161) = {161};
Plane Surface(162) = {162};
Plane Surface(163) = {163};
Plane Surface(164) = {164};
Plane Surface(165) = {165};
Plane Surface(166) = {166};
Plane Surface(167) = {167};
Plane Surface(168) = {168};
Plane Surface(169) = {169};
Plane Surface(170) = {170};
Plane Surface(171) = {171};
Plane Surface(172) = {172};
Plane Surface(173) = {173};
Plane Surface(174) = {174};
Plane Surface(175) = {175};
Plane Surface(176) = {176};
Plane Surface(177) = {177};
Plane Surface(178) = {178};
Plane Surface(179) = {179};
Plane Surface(180) = {180};
Plane Surface(181) = {181};
Plane Surface(182) = {182};
Plane Surface(183) = {183};
Plane Surface(184) = {184};
Plane Surface(185) = {185};
Plane Surface(186) = {186};
Plane Surface(187) = {187};
Plane Surface(188) = {188};
Plane Surface(189) = {189};
Plane Surface(190) = {190};
Plane Surface(191) = {191};
Plane Surface(192) = {192};
Plane Surface(193) = {193};
Plane Surface(194) = {194};
Plane Surface(195) = {195};
Plane Surface(196) = {196};
Surface Loop(1) = {1, 2, 3, 7, 10, 14};
Surface Loop(2) = {17, 18, 19, 20, 21, 22, 23, 24, 25, 26, 27, 28, 29, 30, 31, 32, 33, 34, 35, 36, 37, 38, 39, 40, 41, 42, 43, 44, 45, 46, 47, 48, 49, 50, 51, 52, 53, 54, 55, 56, 57, 58, 59, 60, 61, 62, 63, 64, 65, 66, 67, 68, 69, 70, 71, 72, 73, 74, 75, 76};
Surface Loop(3) = {77, 78, 79, 80, 81, 82, 83, 84, 85, 86, 87, 88, 89, 90, 91, 92, 93, 94, 95, 96, 97, 98, 99, 100, 101, 102, 103, 104, 105, 106, 107, 108, 109, 110, 111, 112, 113, 114, 115, 116, 117, 118, 119, 120, 121, 122, 123, 124, 125, 126, 127, 128, 129, 130, 131, 132, 133, 134, 135, 136};
Surface Loop(4) = {137, 138, 139, 140, 141, 142, 143, 144, 145, 146, 147, 148, 149, 150, 151, 152, 153, 154, 155, 156, 157, 158, 159, 160, 161, 162, 163, 164, 165, 166, 167, 168, 169, 170, 171, 172, 173, 174, 175, 176, 177, 178, 179, 180, 181, 182, 183, 184, 185, 186, 187, 188, 189, 190, 191, 192, 193, 194, 195, 196};
Surface Loop(5) = {9, 8, 7, 6, 5, 4};
Surface Loop(6) = {16, 15, 14, 13, 12, 11};
Volume(1) = {1, 2, 3, 4};
Volume(2) = {5};
Volume(3) = {6};

// Physical Groups
Physical Point("tank3d1_z-", 1) = {1, 2, 3, 4, 9, 11, 13, 15};
Physical Surface("tank3d1_z-", 1) = {1, 5, 12};
Physical Volume("tank3d1_z-", 1) = {1};
Physical Surface("tank3d1_x-", 2) = {11};
Physical Volume("tank3d1_x-", 2) = {2};
Physical Surface("tank3d1_y+", 3) = {9, 10, 16};
Physical Volume("tank3d1_y+", 3) = {3};
Physical Surface("tank3d1_x+", 4) = {4};
Physical Surface("tank3d1_y-", 5) = {3, 8, 15};
Physical Point("tank3d1_z+", 6) = {5, 6, 7, 8, 10, 12, 14, 16};
Physical Surface("tank3d1_z+", 6) = {2, 6, 13};
Physical Surface("tank3d1_sponge", 7) = {7, 14};
Physical Point("STL1_Exported", 9) = {17, 18, 19, 20, 21, 22, 23, 24, 25, 26, 27, 28, 29, 30, 31, 32, 33, 34, 35, 36, 37, 38, 39, 40, 41, 42, 43, 44, 45, 46, 47, 48};
Physical Surface("STL1_Exported", 9) = {17, 18, 19, 20, 21, 22, 23, 24, 25, 26, 27, 28, 29, 30, 31, 32, 33, 34, 35, 36, 37, 38, 39, 40, 41, 42, 43, 44, 45, 46, 47, 48, 49, 50, 51, 52, 53, 54, 55, 56, 57, 58, 59, 60, 61, 62, 63, 64, 65, 66, 67, 68, 69, 70, 71, 72, 73, 74, 75, 76};
Physical Point("STL2_Exported", 10) = {49, 50, 51, 52, 53, 54, 55, 56, 57, 58, 59, 60, 61, 62, 63, 64, 65, 66, 67, 68, 69, 70, 71, 72, 73, 74, 75, 76, 77, 78, 79, 80};
Physical Surface("STL2_Exported", 10) = {77, 78, 79, 80, 81, 82, 83, 84, 85, 86, 87, 88, 89, 90, 91, 92, 93, 94, 95, 96, 97, 98, 99, 100, 101, 102, 103, 104, 105, 106, 107, 108, 109, 110, 111, 112, 113, 114, 115, 116, 117, 118, 119, 120, 121, 122, 123, 124, 125, 126, 127, 128, 129, 130, 131, 132, 133, 134, 135, 136};
Physical Point("STL3_Exported", 11) = {81, 82, 83, 84, 85, 86, 87, 88, 89, 90, 91, 92, 93, 94, 95, 96, 97, 98, 99, 100, 101, 102, 103, 104, 105, 106, 107, 108, 109, 110, 111, 112};
Physical Surface("STL3_Exported", 11) = {137, 138, 139, 140, 141, 142, 143, 144, 145, 146, 147, 148, 149, 150, 151, 152, 153, 154, 155, 156, 157, 158, 159, 160, 161, 162, 163, 164, 165, 166, 167, 168, 169, 170, 171, 172, 173, 174, 175, 176, 177, 178, 179, 180, 181, 182, 183, 184, 185, 186, 187, 188, 189, 190, 191, 192, 193, 194, 195, 196};
Field[1] = Box;
Field[1].VIn = 0.2222222222222222;
Field[1].VOut = 1.0;
Field[1].XMax = 366.4097632;
Field[1].XMin = -214.292688;
Field[1].YMax = 52.0;
Field[1].YMin = -25.0;
Field[1].ZMax = 6.484888888888889;
Field[1].ZMin = 5.707111111111111;
Field[1].Thickness = 6.529;
Field[2] = Box;
Field[2].VIn = 0.2222222222222222;
Field[2].VOut = 1.0;
Field[2].XMax = 52.9585376;
Field[2].XMin = 51.1585376;
Field[2].YMax = 14.4;
Field[2].YMin = 12.6;
Field[2].ZMax = 9.121;
Field[2].ZMin = 7.321;
Field[2].Thickness = 0.2222222222222222;
Field[3] = Min;
Field[3].FieldsList = {1, 2};
Background Field = 3;
Mesh.CharacteristicLengthMax= 1.0;
Coherence;
