solid MATLAB_1
facet normal 0 -1 -0
  outer loop
   vertex 2.37282038 9.0476923 0.300000995
   vertex 2.34602547 9.0476923 0.284530938
   vertex 3.34602547 9.0476923 0.300000995
  endloop
 endfacet
facet normal 0 -1 -0
  outer loop
   vertex 3.34602547 9.0476923 0.300000995
   vertex 2.34602547 9.0476923 0.284530938
   vertex 3.34602547 9.0476923 9.99999997e-07
  endloop
 endfacet
facet normal 0 -1 0
  outer loop
   vertex 3.34602547 9.0476923 9.99999997e-07
   vertex 2.34602547 9.0476923 0.284530938
   vertex 2.34602547 9.0476923 9.99999997e-07
  endloop
 endfacet
facet normal -1 0 0
  outer loop
   vertex 2.34602547 9.0476923 0.284530938
   vertex 2.34602547 9.59769249 0.284530938
   vertex 2.34602547 9.0476923 9.99999997e-07
  endloop
 endfacet
facet normal -1 0 0
  outer loop
   vertex 2.34602547 9.0476923 9.99999997e-07
   vertex 2.34602547 9.59769249 0.284530938
   vertex 2.34602547 10.0476923 9.99999997e-07
  endloop
 endfacet
facet normal -1 0 0
  outer loop
   vertex 2.34602547 10.0476923 9.99999997e-07
   vertex 2.34602547 9.59769249 0.284530938
   vertex 2.34602547 10.0476923 0.300000995
  endloop
 endfacet
facet normal -1 -0 0
  outer loop
   vertex 2.34602547 10.0476923 0.300000995
   vertex 2.34602547 9.59769249 0.284530938
   vertex 2.34602547 9.59769249 0.300000995
  endloop
 endfacet
facet normal 0 -1 -0
  outer loop
   vertex 2.37282038 5.0476923 0.300000995
   vertex 2.34602547 5.0476923 0.284530938
   vertex 3.34602547 5.0476923 0.300000995
  endloop
 endfacet
facet normal 0 -1 -0
  outer loop
   vertex 3.34602547 5.0476923 0.300000995
   vertex 2.34602547 5.0476923 0.284530938
   vertex 3.34602547 5.0476923 9.99999997e-07
  endloop
 endfacet
facet normal 0 -1 0
  outer loop
   vertex 3.34602547 5.0476923 9.99999997e-07
   vertex 2.34602547 5.0476923 0.284530938
   vertex 2.34602547 5.0476923 9.99999997e-07
  endloop
 endfacet
facet normal 0 -1 -0
  outer loop
   vertex 2.37282038 7.0476923 0.300000995
   vertex 2.34602547 7.0476923 0.284530938
   vertex 3.34602547 7.0476923 0.300000995
  endloop
 endfacet
facet normal 0 -1 -0
  outer loop
   vertex 3.34602547 7.0476923 0.300000995
   vertex 2.34602547 7.0476923 0.284530938
   vertex 3.34602547 7.0476923 9.99999997e-07
  endloop
 endfacet
facet normal 0 -1 0
  outer loop
   vertex 3.34602547 7.0476923 9.99999997e-07
   vertex 2.34602547 7.0476923 0.284530938
   vertex 2.34602547 7.0476923 9.99999997e-07
  endloop
 endfacet
facet normal -1 0 0
  outer loop
   vertex 2.34602547 5.0476923 0.284530938
   vertex 2.34602547 5.49769211 0.284530938
   vertex 2.34602547 5.0476923 9.99999997e-07
  endloop
 endfacet
facet normal -1 0 0
  outer loop
   vertex 2.34602547 5.0476923 9.99999997e-07
   vertex 2.34602547 5.49769211 0.284530938
   vertex 2.34602547 5.5476923 0.284530938
  endloop
 endfacet
facet normal -1 0 0
  outer loop
   vertex 2.34602547 5.0476923 9.99999997e-07
   vertex 2.34602547 5.5476923 0.284530938
   vertex 2.34602547 6.0476923 9.99999997e-07
  endloop
 endfacet
facet normal -1 0 0
  outer loop
   vertex 2.34602547 6.0476923 9.99999997e-07
   vertex 2.34602547 5.5476923 0.284530938
   vertex 2.34602547 6.0476923 0.284530938
  endloop
 endfacet
facet normal -1 0 0
  outer loop
   vertex 2.34602547 5.49769211 0.300000995
   vertex 2.34602547 5.5476923 0.300000995
   vertex 2.34602547 5.49769211 0.284530938
  endloop
 endfacet
facet normal -1 0 0
  outer loop
   vertex 2.34602547 5.49769211 0.284530938
   vertex 2.34602547 5.5476923 0.300000995
   vertex 2.34602547 5.5476923 0.284530938
  endloop
 endfacet
facet normal 0 1 -0
  outer loop
   vertex 3.34602547 10.0476923 9.99999997e-07
   vertex 2.34602547 10.0476923 9.99999997e-07
   vertex 3.34602547 10.0476923 0.300000995
  endloop
 endfacet
facet normal 0 1 0
  outer loop
   vertex 3.34602547 10.0476923 0.300000995
   vertex 2.34602547 10.0476923 9.99999997e-07
   vertex 2.34602547 10.0476923 0.300000995
  endloop
 endfacet
facet normal 1 0 0
  outer loop
   vertex 3.34602547 9.0476923 9.99999997e-07
   vertex 3.34602547 10.0476923 9.99999997e-07
   vertex 3.34602547 9.0476923 0.300000995
  endloop
 endfacet
facet normal 1 -0 0
  outer loop
   vertex 3.34602547 9.0476923 0.300000995
   vertex 3.34602547 10.0476923 9.99999997e-07
   vertex 3.34602547 10.0476923 0.300000995
  endloop
 endfacet
facet normal -0 1 0
  outer loop
   vertex 2.37282038 4.0476923 0.300000995
   vertex 3.34602547 4.0476923 0.300000995
   vertex 2.34602547 4.0476923 0.284530938
  endloop
 endfacet
facet normal -0 1 0
  outer loop
   vertex 2.34602547 4.0476923 0.284530938
   vertex 3.34602547 4.0476923 0.300000995
   vertex 3.34602547 4.0476923 9.99999997e-07
  endloop
 endfacet
facet normal 0 1 0
  outer loop
   vertex 2.34602547 4.0476923 0.284530938
   vertex 3.34602547 4.0476923 9.99999997e-07
   vertex 2.34602547 4.0476923 9.99999997e-07
  endloop
 endfacet
facet normal 1 0 0
  outer loop
   vertex 3.34602547 3.0476923 9.99999997e-07
   vertex 3.34602547 4.0476923 9.99999997e-07
   vertex 3.34602547 3.0476923 0.300000995
  endloop
 endfacet
facet normal 1 -0 0
  outer loop
   vertex 3.34602547 3.0476923 0.300000995
   vertex 3.34602547 4.0476923 9.99999997e-07
   vertex 3.34602547 4.0476923 0.300000995
  endloop
 endfacet
facet normal 0 -1 0
  outer loop
   vertex 2.34602547 3.0476923 9.99999997e-07
   vertex 3.34602547 3.0476923 9.99999997e-07
   vertex 2.34602547 3.0476923 0.300000995
  endloop
 endfacet
facet normal 0 -1 0
  outer loop
   vertex 2.34602547 3.0476923 0.300000995
   vertex 3.34602547 3.0476923 9.99999997e-07
   vertex 3.34602547 3.0476923 0.300000995
  endloop
 endfacet
facet normal -1 -0 -0
  outer loop
   vertex 2.34602547 4.0476923 0.284530938
   vertex 2.34602547 4.0476923 9.99999997e-07
   vertex 2.34602547 3.49769211 0.284530938
  endloop
 endfacet
facet normal -1 0 -0
  outer loop
   vertex 2.34602547 3.49769211 0.284530938
   vertex 2.34602547 4.0476923 9.99999997e-07
   vertex 2.34602547 3.0476923 9.99999997e-07
  endloop
 endfacet
facet normal -1 -0 0
  outer loop
   vertex 2.34602547 3.49769211 0.284530938
   vertex 2.34602547 3.0476923 9.99999997e-07
   vertex 2.34602547 3.0476923 0.300000995
  endloop
 endfacet
facet normal -1 0 0
  outer loop
   vertex 2.34602547 3.0476923 0.300000995
   vertex 2.34602547 3.49769211 0.300000995
   vertex 2.34602547 3.49769211 0.284530938
  endloop
 endfacet
facet normal -0 1 0
  outer loop
   vertex 2.37282038 6.0476923 0.300000995
   vertex 3.34602547 6.0476923 0.300000995
   vertex 2.34602547 6.0476923 0.284530938
  endloop
 endfacet
facet normal -0 1 0
  outer loop
   vertex 2.34602547 6.0476923 0.284530938
   vertex 3.34602547 6.0476923 0.300000995
   vertex 3.34602547 6.0476923 9.99999997e-07
  endloop
 endfacet
facet normal 0 1 0
  outer loop
   vertex 2.34602547 6.0476923 0.284530938
   vertex 3.34602547 6.0476923 9.99999997e-07
   vertex 2.34602547 6.0476923 9.99999997e-07
  endloop
 endfacet
facet normal 1 0 0
  outer loop
   vertex 3.34602547 5.0476923 9.99999997e-07
   vertex 3.34602547 6.0476923 9.99999997e-07
   vertex 3.34602547 5.0476923 0.300000995
  endloop
 endfacet
facet normal 1 -0 0
  outer loop
   vertex 3.34602547 5.0476923 0.300000995
   vertex 3.34602547 6.0476923 9.99999997e-07
   vertex 3.34602547 6.0476923 0.300000995
  endloop
 endfacet
facet normal -1 -0 -0
  outer loop
   vertex 2.34602547 8.0476923 0.284530938
   vertex 2.34602547 8.0476923 9.99999997e-07
   vertex 2.34602547 7.59769201 0.284530938
  endloop
 endfacet
facet normal -1 -0 -0
  outer loop
   vertex 2.34602547 7.59769201 0.284530938
   vertex 2.34602547 8.0476923 9.99999997e-07
   vertex 2.34602547 7.5476923 0.284530938
  endloop
 endfacet
facet normal -1 0 0
  outer loop
   vertex 2.34602547 7.59769201 0.284530938
   vertex 2.34602547 7.5476923 0.284530938
   vertex 2.34602547 7.59769201 0.300000995
  endloop
 endfacet
facet normal -1 -0 0
  outer loop
   vertex 2.34602547 7.59769201 0.300000995
   vertex 2.34602547 7.5476923 0.284530938
   vertex 2.34602547 7.5476923 0.300000995
  endloop
 endfacet
facet normal -1 0 0
  outer loop
   vertex 2.34602547 8.0476923 9.99999997e-07
   vertex 2.34602547 7.0476923 9.99999997e-07
   vertex 2.34602547 7.5476923 0.284530938
  endloop
 endfacet
facet normal -1 -0 0
  outer loop
   vertex 2.34602547 7.5476923 0.284530938
   vertex 2.34602547 7.0476923 9.99999997e-07
   vertex 2.34602547 7.0476923 0.284530938
  endloop
 endfacet
facet normal -0 1 0
  outer loop
   vertex 2.37282038 8.0476923 0.300000995
   vertex 3.34602547 8.0476923 0.300000995
   vertex 2.34602547 8.0476923 0.284530938
  endloop
 endfacet
facet normal -0 1 0
  outer loop
   vertex 2.34602547 8.0476923 0.284530938
   vertex 3.34602547 8.0476923 0.300000995
   vertex 3.34602547 8.0476923 9.99999997e-07
  endloop
 endfacet
facet normal 0 1 0
  outer loop
   vertex 2.34602547 8.0476923 0.284530938
   vertex 3.34602547 8.0476923 9.99999997e-07
   vertex 2.34602547 8.0476923 9.99999997e-07
  endloop
 endfacet
facet normal 1 0 0
  outer loop
   vertex 3.34602547 7.0476923 9.99999997e-07
   vertex 3.34602547 8.0476923 9.99999997e-07
   vertex 3.34602547 7.0476923 0.300000995
  endloop
 endfacet
facet normal 1 -0 0
  outer loop
   vertex 3.34602547 7.0476923 0.300000995
   vertex 3.34602547 8.0476923 9.99999997e-07
   vertex 3.34602547 8.0476923 0.300000995
  endloop
 endfacet
facet normal -1 0 0
  outer loop
   vertex 3.84602547 11.0476923 9.99999997e-07
   vertex 3.84602547 2.0476923 9.99999997e-07
   vertex 3.84602547 11.0476923 0.300000995
  endloop
 endfacet
facet normal -1 -0 0
  outer loop
   vertex 3.84602547 11.0476923 0.300000995
   vertex 3.84602547 2.0476923 9.99999997e-07
   vertex 3.84602547 2.0476923 0.300000995
  endloop
 endfacet
facet normal 0 -1 0
  outer loop
   vertex 1.84602547 11.0476923 9.99999997e-07
   vertex 3.84602547 11.0476923 9.99999997e-07
   vertex 1.84602547 11.0476923 0.300000995
  endloop
 endfacet
facet normal 0 -1 0
  outer loop
   vertex 1.84602547 11.0476923 0.300000995
   vertex 3.84602547 11.0476923 9.99999997e-07
   vertex 3.84602547 11.0476923 0.300000995
  endloop
 endfacet
facet normal 1 0 0
  outer loop
   vertex 1.84602547 2.0476923 9.99999997e-07
   vertex 1.84602547 11.0476923 9.99999997e-07
   vertex 1.84602547 2.0476923 0.300000995
  endloop
 endfacet
facet normal 1 -0 0
  outer loop
   vertex 1.84602547 2.0476923 0.300000995
   vertex 1.84602547 11.0476923 9.99999997e-07
   vertex 1.84602547 11.0476923 0.300000995
  endloop
 endfacet
facet normal 0 1 -0
  outer loop
   vertex 3.84602547 2.0476923 9.99999997e-07
   vertex 1.84602547 2.0476923 9.99999997e-07
   vertex 3.84602547 2.0476923 0.300000995
  endloop
 endfacet
facet normal 0 1 0
  outer loop
   vertex 3.84602547 2.0476923 0.300000995
   vertex 1.84602547 2.0476923 9.99999997e-07
   vertex 1.84602547 2.0476923 0.300000995
  endloop
 endfacet
facet normal 0 0 -1
  outer loop
   vertex 2.37282038 8.0476923 0.300000995
   vertex 2.37282038 9.0476923 0.300000995
   vertex 3.34602547 8.0476923 0.300000995
  endloop
 endfacet
facet normal 0 0 -1
  outer loop
   vertex 3.34602547 8.0476923 0.300000995
   vertex 2.37282038 9.0476923 0.300000995
   vertex 3.34602547 9.0476923 0.300000995
  endloop
 endfacet
facet normal 0 0 -1
  outer loop
   vertex 3.34602547 8.0476923 0.300000995
   vertex 3.34602547 9.0476923 0.300000995
   vertex 3.84602547 11.0476923 0.300000995
  endloop
 endfacet
facet normal 0 0 -1
  outer loop
   vertex 3.84602547 11.0476923 0.300000995
   vertex 3.34602547 9.0476923 0.300000995
   vertex 3.34602547 10.0476923 0.300000995
  endloop
 endfacet
facet normal -0 0 -1
  outer loop
   vertex 3.84602547 11.0476923 0.300000995
   vertex 3.34602547 10.0476923 0.300000995
   vertex 1.84602547 11.0476923 0.300000995
  endloop
 endfacet
facet normal 0 0 -1
  outer loop
   vertex 1.84602547 11.0476923 0.300000995
   vertex 3.34602547 10.0476923 0.300000995
   vertex 2.34602547 10.0476923 0.300000995
  endloop
 endfacet
facet normal 0 0 -1
  outer loop
   vertex 1.84602547 11.0476923 0.300000995
   vertex 2.34602547 10.0476923 0.300000995
   vertex 2.17282033 9.59769249 0.300000995
  endloop
 endfacet
facet normal 0 0 -1
  outer loop
   vertex 2.17282033 9.59769249 0.300000995
   vertex 2.34602547 10.0476923 0.300000995
   vertex 2.34602547 9.59769249 0.300000995
  endloop
 endfacet
facet normal -0 -0 -1
  outer loop
   vertex 2.17282033 9.59769249 0.300000995
   vertex 2.17282033 7.59769201 0.300000995
   vertex 1.84602547 11.0476923 0.300000995
  endloop
 endfacet
facet normal 0 0 -1
  outer loop
   vertex 1.84602547 11.0476923 0.300000995
   vertex 2.17282033 7.59769201 0.300000995
   vertex 2.17282033 7.5476923 0.300000995
  endloop
 endfacet
facet normal 0 0 -1
  outer loop
   vertex 1.84602547 11.0476923 0.300000995
   vertex 2.17282033 7.5476923 0.300000995
   vertex 2.17282033 5.5476923 0.300000995
  endloop
 endfacet
facet normal -0 -0 -1
  outer loop
   vertex 2.34602547 7.59769201 0.300000995
   vertex 2.34602547 7.5476923 0.300000995
   vertex 2.17282033 7.59769201 0.300000995
  endloop
 endfacet
facet normal 0 0 -1
  outer loop
   vertex 2.17282033 7.59769201 0.300000995
   vertex 2.34602547 7.5476923 0.300000995
   vertex 2.17282033 7.5476923 0.300000995
  endloop
 endfacet
facet normal -0 -0 -1
  outer loop
   vertex 2.34602547 5.5476923 0.300000995
   vertex 2.34602547 5.49769211 0.300000995
   vertex 2.17282033 5.5476923 0.300000995
  endloop
 endfacet
facet normal 0 0 -1
  outer loop
   vertex 2.17282033 5.5476923 0.300000995
   vertex 2.34602547 5.49769211 0.300000995
   vertex 2.17282033 5.49769211 0.300000995
  endloop
 endfacet
facet normal 0 -0 -1
  outer loop
   vertex 2.17282033 5.5476923 0.300000995
   vertex 2.17282033 5.49769211 0.300000995
   vertex 1.84602547 2.0476923 0.300000995
  endloop
 endfacet
facet normal 0 0 -1
  outer loop
   vertex 1.84602547 2.0476923 0.300000995
   vertex 2.17282033 5.49769211 0.300000995
   vertex 2.17282033 3.49769211 0.300000995
  endloop
 endfacet
facet normal 0 0 -1
  outer loop
   vertex 1.84602547 2.0476923 0.300000995
   vertex 2.17282033 3.49769211 0.300000995
   vertex 2.34602547 3.0476923 0.300000995
  endloop
 endfacet
facet normal 0 0 -1
  outer loop
   vertex 2.34602547 3.0476923 0.300000995
   vertex 2.17282033 3.49769211 0.300000995
   vertex 2.34602547 3.49769211 0.300000995
  endloop
 endfacet
facet normal 0 -0 -1
  outer loop
   vertex 2.34602547 3.0476923 0.300000995
   vertex 3.34602547 3.0476923 0.300000995
   vertex 1.84602547 2.0476923 0.300000995
  endloop
 endfacet
facet normal 0 0 -1
  outer loop
   vertex 1.84602547 2.0476923 0.300000995
   vertex 3.34602547 3.0476923 0.300000995
   vertex 3.84602547 2.0476923 0.300000995
  endloop
 endfacet
facet normal 0 0 -1
  outer loop
   vertex 3.84602547 2.0476923 0.300000995
   vertex 3.34602547 3.0476923 0.300000995
   vertex 3.34602547 4.0476923 0.300000995
  endloop
 endfacet
facet normal 0 0 -1
  outer loop
   vertex 3.84602547 2.0476923 0.300000995
   vertex 3.34602547 4.0476923 0.300000995
   vertex 3.34602547 5.0476923 0.300000995
  endloop
 endfacet
facet normal -0 -0 -1
  outer loop
   vertex 3.34602547 5.0476923 0.300000995
   vertex 3.34602547 4.0476923 0.300000995
   vertex 2.37282038 5.0476923 0.300000995
  endloop
 endfacet
facet normal 0 0 -1
  outer loop
   vertex 2.37282038 5.0476923 0.300000995
   vertex 3.34602547 4.0476923 0.300000995
   vertex 2.37282038 4.0476923 0.300000995
  endloop
 endfacet
facet normal 0 0 -1
  outer loop
   vertex 3.34602547 5.0476923 0.300000995
   vertex 3.34602547 6.0476923 0.300000995
   vertex 3.84602547 2.0476923 0.300000995
  endloop
 endfacet
facet normal 0 0 -1
  outer loop
   vertex 3.84602547 2.0476923 0.300000995
   vertex 3.34602547 6.0476923 0.300000995
   vertex 3.34602547 7.0476923 0.300000995
  endloop
 endfacet
facet normal 0 0 -1
  outer loop
   vertex 3.84602547 2.0476923 0.300000995
   vertex 3.34602547 7.0476923 0.300000995
   vertex 3.84602547 11.0476923 0.300000995
  endloop
 endfacet
facet normal 0 0 -1
  outer loop
   vertex 3.84602547 11.0476923 0.300000995
   vertex 3.34602547 7.0476923 0.300000995
   vertex 3.34602547 8.0476923 0.300000995
  endloop
 endfacet
facet normal 0 0 -1
  outer loop
   vertex 2.37282038 6.0476923 0.300000995
   vertex 2.37282038 7.0476923 0.300000995
   vertex 3.34602547 6.0476923 0.300000995
  endloop
 endfacet
facet normal 0 0 -1
  outer loop
   vertex 3.34602547 6.0476923 0.300000995
   vertex 2.37282038 7.0476923 0.300000995
   vertex 3.34602547 7.0476923 0.300000995
  endloop
 endfacet
facet normal 0 0 -1
  outer loop
   vertex 1.84602547 2.0476923 0.300000995
   vertex 1.84602547 11.0476923 0.300000995
   vertex 2.17282033 5.5476923 0.300000995
  endloop
 endfacet
facet normal 0 0 1
  outer loop
   vertex 3.34602547 7.0476923 9.99999997e-07
   vertex 3.84602547 11.0476923 9.99999997e-07
   vertex 3.34602547 8.0476923 9.99999997e-07
  endloop
 endfacet
facet normal 0 0 1
  outer loop
   vertex 3.34602547 8.0476923 9.99999997e-07
   vertex 3.84602547 11.0476923 9.99999997e-07
   vertex 3.34602547 9.0476923 9.99999997e-07
  endloop
 endfacet
facet normal 0 -0 1
  outer loop
   vertex 3.34602547 8.0476923 9.99999997e-07
   vertex 3.34602547 9.0476923 9.99999997e-07
   vertex 2.34602547 8.0476923 9.99999997e-07
  endloop
 endfacet
facet normal 0 0 1
  outer loop
   vertex 2.34602547 8.0476923 9.99999997e-07
   vertex 3.34602547 9.0476923 9.99999997e-07
   vertex 2.34602547 9.0476923 9.99999997e-07
  endloop
 endfacet
facet normal 0 -0 1
  outer loop
   vertex 2.34602547 8.0476923 9.99999997e-07
   vertex 2.34602547 9.0476923 9.99999997e-07
   vertex 1.84602547 11.0476923 9.99999997e-07
  endloop
 endfacet
facet normal 0 0 1
  outer loop
   vertex 1.84602547 11.0476923 9.99999997e-07
   vertex 2.34602547 9.0476923 9.99999997e-07
   vertex 2.34602547 10.0476923 9.99999997e-07
  endloop
 endfacet
facet normal 0 0 1
  outer loop
   vertex 1.84602547 11.0476923 9.99999997e-07
   vertex 2.34602547 10.0476923 9.99999997e-07
   vertex 3.34602547 10.0476923 9.99999997e-07
  endloop
 endfacet
facet normal -0 0 1
  outer loop
   vertex 2.34602547 7.0476923 9.99999997e-07
   vertex 2.34602547 6.0476923 9.99999997e-07
   vertex 3.34602547 7.0476923 9.99999997e-07
  endloop
 endfacet
facet normal 0 0 1
  outer loop
   vertex 3.34602547 7.0476923 9.99999997e-07
   vertex 2.34602547 6.0476923 9.99999997e-07
   vertex 3.34602547 6.0476923 9.99999997e-07
  endloop
 endfacet
facet normal -0 0 1
  outer loop
   vertex 3.34602547 7.0476923 9.99999997e-07
   vertex 3.34602547 6.0476923 9.99999997e-07
   vertex 3.84602547 11.0476923 9.99999997e-07
  endloop
 endfacet
facet normal 0 0 1
  outer loop
   vertex 3.84602547 11.0476923 9.99999997e-07
   vertex 3.34602547 6.0476923 9.99999997e-07
   vertex 3.84602547 2.0476923 9.99999997e-07
  endloop
 endfacet
facet normal 0 0 1
  outer loop
   vertex 3.84602547 2.0476923 9.99999997e-07
   vertex 3.34602547 6.0476923 9.99999997e-07
   vertex 3.34602547 5.0476923 9.99999997e-07
  endloop
 endfacet
facet normal 0 0 1
  outer loop
   vertex 3.84602547 2.0476923 9.99999997e-07
   vertex 3.34602547 5.0476923 9.99999997e-07
   vertex 3.34602547 4.0476923 9.99999997e-07
  endloop
 endfacet
facet normal 0 -0 1
  outer loop
   vertex 3.34602547 4.0476923 9.99999997e-07
   vertex 3.34602547 5.0476923 9.99999997e-07
   vertex 2.34602547 4.0476923 9.99999997e-07
  endloop
 endfacet
facet normal 0 0 1
  outer loop
   vertex 2.34602547 4.0476923 9.99999997e-07
   vertex 3.34602547 5.0476923 9.99999997e-07
   vertex 2.34602547 5.0476923 9.99999997e-07
  endloop
 endfacet
facet normal 0 -0 1
  outer loop
   vertex 2.34602547 4.0476923 9.99999997e-07
   vertex 2.34602547 5.0476923 9.99999997e-07
   vertex 1.84602547 2.0476923 9.99999997e-07
  endloop
 endfacet
facet normal 0 0 1
  outer loop
   vertex 1.84602547 2.0476923 9.99999997e-07
   vertex 2.34602547 5.0476923 9.99999997e-07
   vertex 2.34602547 6.0476923 9.99999997e-07
  endloop
 endfacet
facet normal 0 0 1
  outer loop
   vertex 1.84602547 2.0476923 9.99999997e-07
   vertex 2.34602547 6.0476923 9.99999997e-07
   vertex 2.34602547 7.0476923 9.99999997e-07
  endloop
 endfacet
facet normal 0 0 1
  outer loop
   vertex 1.84602547 2.0476923 9.99999997e-07
   vertex 2.34602547 7.0476923 9.99999997e-07
   vertex 1.84602547 11.0476923 9.99999997e-07
  endloop
 endfacet
facet normal 0 0 1
  outer loop
   vertex 1.84602547 11.0476923 9.99999997e-07
   vertex 2.34602547 7.0476923 9.99999997e-07
   vertex 2.34602547 8.0476923 9.99999997e-07
  endloop
 endfacet
facet normal 0 0 1
  outer loop
   vertex 3.34602547 3.0476923 9.99999997e-07
   vertex 2.34602547 3.0476923 9.99999997e-07
   vertex 1.84602547 2.0476923 9.99999997e-07
  endloop
 endfacet
facet normal 0 0 1
  outer loop
   vertex 1.84602547 2.0476923 9.99999997e-07
   vertex 2.34602547 3.0476923 9.99999997e-07
   vertex 2.34602547 4.0476923 9.99999997e-07
  endloop
 endfacet
facet normal 0 0 1
  outer loop
   vertex 3.34602547 4.0476923 9.99999997e-07
   vertex 3.34602547 3.0476923 9.99999997e-07
   vertex 3.84602547 2.0476923 9.99999997e-07
  endloop
 endfacet
facet normal 0 0 1
  outer loop
   vertex 3.84602547 2.0476923 9.99999997e-07
   vertex 3.34602547 3.0476923 9.99999997e-07
   vertex 1.84602547 2.0476923 9.99999997e-07
  endloop
 endfacet
facet normal -0 0 1
  outer loop
   vertex 1.84602547 11.0476923 9.99999997e-07
   vertex 3.34602547 10.0476923 9.99999997e-07
   vertex 3.84602547 11.0476923 9.99999997e-07
  endloop
 endfacet
facet normal 0 0 1
  outer loop
   vertex 3.84602547 11.0476923 9.99999997e-07
   vertex 3.34602547 10.0476923 9.99999997e-07
   vertex 3.34602547 9.0476923 9.99999997e-07
  endloop
 endfacet
facet normal -0.500000238 0 0.866025269
  outer loop
   vertex 2.34602547 7.0476923 0.284530938
   vertex 2.37282038 7.0476923 0.300000995
   vertex 2.34602547 7.5476923 0.284530938
  endloop
 endfacet
facet normal -0.5 1.39567415e-08 0.866025388
  outer loop
   vertex 2.34602547 7.5476923 0.284530938
   vertex 2.37282038 7.0476923 0.300000995
   vertex 3.26205087 7.5476923 0.81339848
  endloop
 endfacet
facet normal -0.5 0 0.866025388
  outer loop
   vertex 3.26205087 7.5476923 0.81339848
   vertex 2.37282038 7.0476923 0.300000995
   vertex 2.37282038 6.0476923 0.300000995
  endloop
 endfacet
facet normal -0.5 0 0.866025388
  outer loop
   vertex 3.26205087 7.5476923 0.81339848
   vertex 2.37282038 6.0476923 0.300000995
   vertex 3.26205087 5.5476923 0.81339848
  endloop
 endfacet
facet normal -0.5 -1.39567415e-08 0.866025388
  outer loop
   vertex 3.26205087 5.5476923 0.81339848
   vertex 2.37282038 6.0476923 0.300000995
   vertex 2.34602547 5.5476923 0.284530938
  endloop
 endfacet
facet normal -0.500000238 0 0.866025269
  outer loop
   vertex 2.34602547 5.5476923 0.284530938
   vertex 2.37282038 6.0476923 0.300000995
   vertex 2.34602547 6.0476923 0.284530938
  endloop
 endfacet
facet normal 0 1 0
  outer loop
   vertex 2.34602547 5.5476923 0.284530938
   vertex 2.34602547 5.5476923 0.300000995
   vertex 3.26205087 5.5476923 0.81339848
  endloop
 endfacet
facet normal 0 1 0
  outer loop
   vertex 3.26205087 5.5476923 0.81339848
   vertex 2.34602547 5.5476923 0.300000995
   vertex 3.21205091 5.5476923 0.900000989
  endloop
 endfacet
facet normal 0 1 0
  outer loop
   vertex 3.21205091 5.5476923 0.900000989
   vertex 2.34602547 5.5476923 0.300000995
   vertex 2.17282033 5.5476923 0.300000995
  endloop
 endfacet
facet normal -0.866025507 -0 -0.499999791
  outer loop
   vertex 3.26205087 7.5476923 0.81339848
   vertex 3.26205087 5.5476923 0.81339848
   vertex 3.21205091 7.5476923 0.900000989
  endloop
 endfacet
facet normal -0.866025507 -0 -0.499999791
  outer loop
   vertex 3.21205091 7.5476923 0.900000989
   vertex 3.26205087 5.5476923 0.81339848
   vertex 3.21205091 5.5476923 0.900000989
  endloop
 endfacet
facet normal 0 -1 0
  outer loop
   vertex 2.34602547 7.5476923 0.284530938
   vertex 3.26205087 7.5476923 0.81339848
   vertex 2.34602547 7.5476923 0.300000995
  endloop
 endfacet
facet normal 0 -1 0
  outer loop
   vertex 2.34602547 7.5476923 0.300000995
   vertex 3.26205087 7.5476923 0.81339848
   vertex 3.21205091 7.5476923 0.900000989
  endloop
 endfacet
facet normal 0 -1 0
  outer loop
   vertex 2.34602547 7.5476923 0.300000995
   vertex 3.21205091 7.5476923 0.900000989
   vertex 2.17282033 7.5476923 0.300000995
  endloop
 endfacet
facet normal 0.49999997 0 -0.866025448
  outer loop
   vertex 2.17282033 5.5476923 0.300000995
   vertex 2.17282033 7.5476923 0.300000995
   vertex 3.21205091 5.5476923 0.900000989
  endloop
 endfacet
facet normal 0.49999997 0 -0.866025448
  outer loop
   vertex 3.21205091 5.5476923 0.900000989
   vertex 2.17282033 7.5476923 0.300000995
   vertex 3.21205091 7.5476923 0.900000989
  endloop
 endfacet
facet normal -0.500000238 0 0.866025269
  outer loop
   vertex 2.34602547 5.0476923 0.284530938
   vertex 2.37282038 5.0476923 0.300000995
   vertex 2.34602547 5.49769211 0.284530938
  endloop
 endfacet
facet normal -0.5 1.55074975e-08 0.866025388
  outer loop
   vertex 2.34602547 5.49769211 0.284530938
   vertex 2.37282038 5.0476923 0.300000995
   vertex 3.26205087 5.49769211 0.81339848
  endloop
 endfacet
facet normal -0.5 0 0.866025388
  outer loop
   vertex 3.26205087 5.49769211 0.81339848
   vertex 2.37282038 5.0476923 0.300000995
   vertex 2.37282038 4.0476923 0.300000995
  endloop
 endfacet
facet normal -0.5 0 0.866025388
  outer loop
   vertex 3.26205087 5.49769211 0.81339848
   vertex 2.37282038 4.0476923 0.300000995
   vertex 3.26205087 3.49769211 0.81339848
  endloop
 endfacet
facet normal -0.5 -1.26879423e-08 0.866025388
  outer loop
   vertex 3.26205087 3.49769211 0.81339848
   vertex 2.37282038 4.0476923 0.300000995
   vertex 2.34602547 3.49769211 0.284530938
  endloop
 endfacet
facet normal -0.500000238 0 0.866025269
  outer loop
   vertex 2.34602547 3.49769211 0.284530938
   vertex 2.37282038 4.0476923 0.300000995
   vertex 2.34602547 4.0476923 0.284530938
  endloop
 endfacet
facet normal 0 1 0
  outer loop
   vertex 2.34602547 3.49769211 0.284530938
   vertex 2.34602547 3.49769211 0.300000995
   vertex 3.26205087 3.49769211 0.81339848
  endloop
 endfacet
facet normal 0 1 0
  outer loop
   vertex 3.26205087 3.49769211 0.81339848
   vertex 2.34602547 3.49769211 0.300000995
   vertex 3.21205091 3.49769211 0.900000989
  endloop
 endfacet
facet normal 0 1 0
  outer loop
   vertex 3.21205091 3.49769211 0.900000989
   vertex 2.34602547 3.49769211 0.300000995
   vertex 2.17282033 3.49769211 0.300000995
  endloop
 endfacet
facet normal -0.866025507 -0 -0.499999791
  outer loop
   vertex 3.26205087 5.49769211 0.81339848
   vertex 3.26205087 3.49769211 0.81339848
   vertex 3.21205091 5.49769211 0.900000989
  endloop
 endfacet
facet normal -0.866025507 -0 -0.499999791
  outer loop
   vertex 3.21205091 5.49769211 0.900000989
   vertex 3.26205087 3.49769211 0.81339848
   vertex 3.21205091 3.49769211 0.900000989
  endloop
 endfacet
facet normal 0 -1 0
  outer loop
   vertex 2.34602547 5.49769211 0.284530938
   vertex 3.26205087 5.49769211 0.81339848
   vertex 2.34602547 5.49769211 0.300000995
  endloop
 endfacet
facet normal 0 -1 0
  outer loop
   vertex 2.34602547 5.49769211 0.300000995
   vertex 3.26205087 5.49769211 0.81339848
   vertex 3.21205091 5.49769211 0.900000989
  endloop
 endfacet
facet normal 0 -1 0
  outer loop
   vertex 2.34602547 5.49769211 0.300000995
   vertex 3.21205091 5.49769211 0.900000989
   vertex 2.17282033 5.49769211 0.300000995
  endloop
 endfacet
facet normal 0.49999997 0 -0.866025448
  outer loop
   vertex 2.17282033 3.49769211 0.300000995
   vertex 2.17282033 5.49769211 0.300000995
   vertex 3.21205091 3.49769211 0.900000989
  endloop
 endfacet
facet normal 0.49999997 0 -0.866025448
  outer loop
   vertex 3.21205091 3.49769211 0.900000989
   vertex 2.17282033 5.49769211 0.300000995
   vertex 3.21205091 5.49769211 0.900000989
  endloop
 endfacet
facet normal -0.500000238 0 0.866025269
  outer loop
   vertex 2.34602547 9.0476923 0.284530938
   vertex 2.37282038 9.0476923 0.300000995
   vertex 2.34602547 9.59769249 0.284530938
  endloop
 endfacet
facet normal -0.5 1.26879423e-08 0.866025388
  outer loop
   vertex 2.34602547 9.59769249 0.284530938
   vertex 2.37282038 9.0476923 0.300000995
   vertex 3.26205087 9.59769249 0.81339848
  endloop
 endfacet
facet normal -0.5 0 0.866025388
  outer loop
   vertex 3.26205087 9.59769249 0.81339848
   vertex 2.37282038 9.0476923 0.300000995
   vertex 3.26205087 7.59769201 0.81339848
  endloop
 endfacet
facet normal -0.5 0 0.866025388
  outer loop
   vertex 3.26205087 7.59769201 0.81339848
   vertex 2.37282038 9.0476923 0.300000995
   vertex 2.37282038 8.0476923 0.300000995
  endloop
 endfacet
facet normal -0.5 -1.55074797e-08 0.866025388
  outer loop
   vertex 3.26205087 7.59769201 0.81339848
   vertex 2.37282038 8.0476923 0.300000995
   vertex 2.34602547 7.59769201 0.284530938
  endloop
 endfacet
facet normal -0.500000238 0 0.866025269
  outer loop
   vertex 2.34602547 7.59769201 0.284530938
   vertex 2.37282038 8.0476923 0.300000995
   vertex 2.34602547 8.0476923 0.284530938
  endloop
 endfacet
facet normal 0 1 0
  outer loop
   vertex 2.34602547 7.59769201 0.284530938
   vertex 2.34602547 7.59769201 0.300000995
   vertex 3.26205087 7.59769201 0.81339848
  endloop
 endfacet
facet normal 0 1 0
  outer loop
   vertex 3.26205087 7.59769201 0.81339848
   vertex 2.34602547 7.59769201 0.300000995
   vertex 3.21205091 7.59769201 0.900000989
  endloop
 endfacet
facet normal 0 1 0
  outer loop
   vertex 3.21205091 7.59769201 0.900000989
   vertex 2.34602547 7.59769201 0.300000995
   vertex 2.17282033 7.59769201 0.300000995
  endloop
 endfacet
facet normal -0.866025507 -0 -0.499999791
  outer loop
   vertex 3.26205087 9.59769249 0.81339848
   vertex 3.26205087 7.59769201 0.81339848
   vertex 3.21205091 9.59769249 0.900000989
  endloop
 endfacet
facet normal -0.866025507 -0 -0.499999791
  outer loop
   vertex 3.21205091 9.59769249 0.900000989
   vertex 3.26205087 7.59769201 0.81339848
   vertex 3.21205091 7.59769201 0.900000989
  endloop
 endfacet
facet normal 0 -1 0
  outer loop
   vertex 2.34602547 9.59769249 0.284530938
   vertex 3.26205087 9.59769249 0.81339848
   vertex 2.34602547 9.59769249 0.300000995
  endloop
 endfacet
facet normal 0 -1 0
  outer loop
   vertex 2.34602547 9.59769249 0.300000995
   vertex 3.26205087 9.59769249 0.81339848
   vertex 3.21205091 9.59769249 0.900000989
  endloop
 endfacet
facet normal 0 -1 0
  outer loop
   vertex 2.34602547 9.59769249 0.300000995
   vertex 3.21205091 9.59769249 0.900000989
   vertex 2.17282033 9.59769249 0.300000995
  endloop
 endfacet
facet normal 0.49999997 0 -0.866025448
  outer loop
   vertex 2.17282033 7.59769201 0.300000995
   vertex 2.17282033 9.59769249 0.300000995
   vertex 3.21205091 7.59769201 0.900000989
  endloop
 endfacet
facet normal 0.49999997 0 -0.866025448
  outer loop
   vertex 3.21205091 7.59769201 0.900000989
   vertex 2.17282033 9.59769249 0.300000995
   vertex 3.21205091 9.59769249 0.900000989
  endloop
 endfacet
endsolid MATLAB_1
