solid MATLAB_1
facet normal 1 -0 0
  outer loop
   vertex 9.0476923 2.37282038 0.300000995
   vertex 9.0476923 2.34602547 0.284530938
   vertex 9.0476923 3.34602547 0.300000995
  endloop
 endfacet
facet normal 1 0 0
  outer loop
   vertex 9.0476923 3.34602547 0.300000995
   vertex 9.0476923 2.34602547 0.284530938
   vertex 9.0476923 3.34602547 9.99999997e-07
  endloop
 endfacet
facet normal 1 0 0
  outer loop
   vertex 9.0476923 3.34602547 9.99999997e-07
   vertex 9.0476923 2.34602547 0.284530938
   vertex 9.0476923 2.34602547 9.99999997e-07
  endloop
 endfacet
facet normal -0 1 0
  outer loop
   vertex 9.0476923 2.34602547 0.284530938
   vertex 9.59769249 2.34602547 0.284530938
   vertex 9.0476923 2.34602547 9.99999997e-07
  endloop
 endfacet
facet normal 0 1 0
  outer loop
   vertex 9.0476923 2.34602547 9.99999997e-07
   vertex 9.59769249 2.34602547 0.284530938
   vertex 10.0476923 2.34602547 9.99999997e-07
  endloop
 endfacet
facet normal 0 1 -0
  outer loop
   vertex 10.0476923 2.34602547 9.99999997e-07
   vertex 9.59769249 2.34602547 0.284530938
   vertex 10.0476923 2.34602547 0.300000995
  endloop
 endfacet
facet normal 0 1 0
  outer loop
   vertex 10.0476923 2.34602547 0.300000995
   vertex 9.59769249 2.34602547 0.284530938
   vertex 9.59769249 2.34602547 0.300000995
  endloop
 endfacet
facet normal 1 -0 0
  outer loop
   vertex 5.0476923 2.37282038 0.300000995
   vertex 5.0476923 2.34602547 0.284530938
   vertex 5.0476923 3.34602547 0.300000995
  endloop
 endfacet
facet normal 1 0 0
  outer loop
   vertex 5.0476923 3.34602547 0.300000995
   vertex 5.0476923 2.34602547 0.284530938
   vertex 5.0476923 3.34602547 9.99999997e-07
  endloop
 endfacet
facet normal 1 0 0
  outer loop
   vertex 5.0476923 3.34602547 9.99999997e-07
   vertex 5.0476923 2.34602547 0.284530938
   vertex 5.0476923 2.34602547 9.99999997e-07
  endloop
 endfacet
facet normal 1 -0 0
  outer loop
   vertex 7.0476923 2.37282038 0.300000995
   vertex 7.0476923 2.34602547 0.284530938
   vertex 7.0476923 3.34602547 0.300000995
  endloop
 endfacet
facet normal 1 0 0
  outer loop
   vertex 7.0476923 3.34602547 0.300000995
   vertex 7.0476923 2.34602547 0.284530938
   vertex 7.0476923 3.34602547 9.99999997e-07
  endloop
 endfacet
facet normal 1 0 0
  outer loop
   vertex 7.0476923 3.34602547 9.99999997e-07
   vertex 7.0476923 2.34602547 0.284530938
   vertex 7.0476923 2.34602547 9.99999997e-07
  endloop
 endfacet
facet normal -0 1 0
  outer loop
   vertex 5.0476923 2.34602547 0.284530938
   vertex 5.49769211 2.34602547 0.284530938
   vertex 5.0476923 2.34602547 9.99999997e-07
  endloop
 endfacet
facet normal 0 1 0
  outer loop
   vertex 5.0476923 2.34602547 9.99999997e-07
   vertex 5.49769211 2.34602547 0.284530938
   vertex 5.5476923 2.34602547 0.284530938
  endloop
 endfacet
facet normal 0 1 0
  outer loop
   vertex 5.0476923 2.34602547 9.99999997e-07
   vertex 5.5476923 2.34602547 0.284530938
   vertex 6.0476923 2.34602547 9.99999997e-07
  endloop
 endfacet
facet normal 0 1 -0
  outer loop
   vertex 6.0476923 2.34602547 9.99999997e-07
   vertex 5.5476923 2.34602547 0.284530938
   vertex 6.0476923 2.34602547 0.284530938
  endloop
 endfacet
facet normal -0 1 0
  outer loop
   vertex 5.49769211 2.34602547 0.300000995
   vertex 5.5476923 2.34602547 0.300000995
   vertex 5.49769211 2.34602547 0.284530938
  endloop
 endfacet
facet normal 0 1 0
  outer loop
   vertex 5.49769211 2.34602547 0.284530938
   vertex 5.5476923 2.34602547 0.300000995
   vertex 5.5476923 2.34602547 0.284530938
  endloop
 endfacet
facet normal -1 0 0
  outer loop
   vertex 10.0476923 3.34602547 9.99999997e-07
   vertex 10.0476923 2.34602547 9.99999997e-07
   vertex 10.0476923 3.34602547 0.300000995
  endloop
 endfacet
facet normal -1 -0 0
  outer loop
   vertex 10.0476923 3.34602547 0.300000995
   vertex 10.0476923 2.34602547 9.99999997e-07
   vertex 10.0476923 2.34602547 0.300000995
  endloop
 endfacet
facet normal 0 -1 0
  outer loop
   vertex 9.0476923 3.34602547 9.99999997e-07
   vertex 10.0476923 3.34602547 9.99999997e-07
   vertex 9.0476923 3.34602547 0.300000995
  endloop
 endfacet
facet normal 0 -1 0
  outer loop
   vertex 9.0476923 3.34602547 0.300000995
   vertex 10.0476923 3.34602547 9.99999997e-07
   vertex 10.0476923 3.34602547 0.300000995
  endloop
 endfacet
facet normal -1 0 -0
  outer loop
   vertex 4.0476923 2.37282038 0.300000995
   vertex 4.0476923 3.34602547 0.300000995
   vertex 4.0476923 2.34602547 0.284530938
  endloop
 endfacet
facet normal -1 0 0
  outer loop
   vertex 4.0476923 2.34602547 0.284530938
   vertex 4.0476923 3.34602547 0.300000995
   vertex 4.0476923 3.34602547 9.99999997e-07
  endloop
 endfacet
facet normal -1 0 0
  outer loop
   vertex 4.0476923 2.34602547 0.284530938
   vertex 4.0476923 3.34602547 9.99999997e-07
   vertex 4.0476923 2.34602547 9.99999997e-07
  endloop
 endfacet
facet normal 0 -1 0
  outer loop
   vertex 3.0476923 3.34602547 9.99999997e-07
   vertex 4.0476923 3.34602547 9.99999997e-07
   vertex 3.0476923 3.34602547 0.300000995
  endloop
 endfacet
facet normal 0 -1 0
  outer loop
   vertex 3.0476923 3.34602547 0.300000995
   vertex 4.0476923 3.34602547 9.99999997e-07
   vertex 4.0476923 3.34602547 0.300000995
  endloop
 endfacet
facet normal 1 0 0
  outer loop
   vertex 3.0476923 2.34602547 9.99999997e-07
   vertex 3.0476923 3.34602547 9.99999997e-07
   vertex 3.0476923 2.34602547 0.300000995
  endloop
 endfacet
facet normal 1 -0 0
  outer loop
   vertex 3.0476923 2.34602547 0.300000995
   vertex 3.0476923 3.34602547 9.99999997e-07
   vertex 3.0476923 3.34602547 0.300000995
  endloop
 endfacet
facet normal 0 1 0
  outer loop
   vertex 4.0476923 2.34602547 0.284530938
   vertex 4.0476923 2.34602547 9.99999997e-07
   vertex 3.49769211 2.34602547 0.284530938
  endloop
 endfacet
facet normal 0 1 0
  outer loop
   vertex 3.49769211 2.34602547 0.284530938
   vertex 4.0476923 2.34602547 9.99999997e-07
   vertex 3.0476923 2.34602547 9.99999997e-07
  endloop
 endfacet
facet normal 0 1 0
  outer loop
   vertex 3.49769211 2.34602547 0.284530938
   vertex 3.0476923 2.34602547 9.99999997e-07
   vertex 3.0476923 2.34602547 0.300000995
  endloop
 endfacet
facet normal -0 1 0
  outer loop
   vertex 3.0476923 2.34602547 0.300000995
   vertex 3.49769211 2.34602547 0.300000995
   vertex 3.49769211 2.34602547 0.284530938
  endloop
 endfacet
facet normal -1 0 -0
  outer loop
   vertex 6.0476923 2.37282038 0.300000995
   vertex 6.0476923 3.34602547 0.300000995
   vertex 6.0476923 2.34602547 0.284530938
  endloop
 endfacet
facet normal -1 0 0
  outer loop
   vertex 6.0476923 2.34602547 0.284530938
   vertex 6.0476923 3.34602547 0.300000995
   vertex 6.0476923 3.34602547 9.99999997e-07
  endloop
 endfacet
facet normal -1 0 0
  outer loop
   vertex 6.0476923 2.34602547 0.284530938
   vertex 6.0476923 3.34602547 9.99999997e-07
   vertex 6.0476923 2.34602547 9.99999997e-07
  endloop
 endfacet
facet normal 0 -1 0
  outer loop
   vertex 5.0476923 3.34602547 9.99999997e-07
   vertex 6.0476923 3.34602547 9.99999997e-07
   vertex 5.0476923 3.34602547 0.300000995
  endloop
 endfacet
facet normal 0 -1 0
  outer loop
   vertex 5.0476923 3.34602547 0.300000995
   vertex 6.0476923 3.34602547 9.99999997e-07
   vertex 6.0476923 3.34602547 0.300000995
  endloop
 endfacet
facet normal 0 1 0
  outer loop
   vertex 8.0476923 2.34602547 0.284530938
   vertex 8.0476923 2.34602547 9.99999997e-07
   vertex 7.59769201 2.34602547 0.284530938
  endloop
 endfacet
facet normal 0 1 0
  outer loop
   vertex 7.59769201 2.34602547 0.284530938
   vertex 8.0476923 2.34602547 9.99999997e-07
   vertex 7.5476923 2.34602547 0.284530938
  endloop
 endfacet
facet normal 0 1 -0
  outer loop
   vertex 7.59769201 2.34602547 0.284530938
   vertex 7.5476923 2.34602547 0.284530938
   vertex 7.59769201 2.34602547 0.300000995
  endloop
 endfacet
facet normal 0 1 0
  outer loop
   vertex 7.59769201 2.34602547 0.300000995
   vertex 7.5476923 2.34602547 0.284530938
   vertex 7.5476923 2.34602547 0.300000995
  endloop
 endfacet
facet normal 0 1 0
  outer loop
   vertex 8.0476923 2.34602547 9.99999997e-07
   vertex 7.0476923 2.34602547 9.99999997e-07
   vertex 7.5476923 2.34602547 0.284530938
  endloop
 endfacet
facet normal 0 1 0
  outer loop
   vertex 7.5476923 2.34602547 0.284530938
   vertex 7.0476923 2.34602547 9.99999997e-07
   vertex 7.0476923 2.34602547 0.284530938
  endloop
 endfacet
facet normal -1 0 -0
  outer loop
   vertex 8.0476923 2.37282038 0.300000995
   vertex 8.0476923 3.34602547 0.300000995
   vertex 8.0476923 2.34602547 0.284530938
  endloop
 endfacet
facet normal -1 0 0
  outer loop
   vertex 8.0476923 2.34602547 0.284530938
   vertex 8.0476923 3.34602547 0.300000995
   vertex 8.0476923 3.34602547 9.99999997e-07
  endloop
 endfacet
facet normal -1 0 0
  outer loop
   vertex 8.0476923 2.34602547 0.284530938
   vertex 8.0476923 3.34602547 9.99999997e-07
   vertex 8.0476923 2.34602547 9.99999997e-07
  endloop
 endfacet
facet normal 0 -1 0
  outer loop
   vertex 7.0476923 3.34602547 9.99999997e-07
   vertex 8.0476923 3.34602547 9.99999997e-07
   vertex 7.0476923 3.34602547 0.300000995
  endloop
 endfacet
facet normal 0 -1 0
  outer loop
   vertex 7.0476923 3.34602547 0.300000995
   vertex 8.0476923 3.34602547 9.99999997e-07
   vertex 8.0476923 3.34602547 0.300000995
  endloop
 endfacet
facet normal 0 1 -0
  outer loop
   vertex 11.0476923 3.84602547 9.99999997e-07
   vertex 2.0476923 3.84602547 9.99999997e-07
   vertex 11.0476923 3.84602547 0.300000995
  endloop
 endfacet
facet normal 0 1 0
  outer loop
   vertex 11.0476923 3.84602547 0.300000995
   vertex 2.0476923 3.84602547 9.99999997e-07
   vertex 2.0476923 3.84602547 0.300000995
  endloop
 endfacet
facet normal 1 0 0
  outer loop
   vertex 11.0476923 1.84602547 9.99999997e-07
   vertex 11.0476923 3.84602547 9.99999997e-07
   vertex 11.0476923 1.84602547 0.300000995
  endloop
 endfacet
facet normal 1 -0 0
  outer loop
   vertex 11.0476923 1.84602547 0.300000995
   vertex 11.0476923 3.84602547 9.99999997e-07
   vertex 11.0476923 3.84602547 0.300000995
  endloop
 endfacet
facet normal 0 -1 0
  outer loop
   vertex 2.0476923 1.84602547 9.99999997e-07
   vertex 11.0476923 1.84602547 9.99999997e-07
   vertex 2.0476923 1.84602547 0.300000995
  endloop
 endfacet
facet normal 0 -1 0
  outer loop
   vertex 2.0476923 1.84602547 0.300000995
   vertex 11.0476923 1.84602547 9.99999997e-07
   vertex 11.0476923 1.84602547 0.300000995
  endloop
 endfacet
facet normal -1 0 0
  outer loop
   vertex 2.0476923 3.84602547 9.99999997e-07
   vertex 2.0476923 1.84602547 9.99999997e-07
   vertex 2.0476923 3.84602547 0.300000995
  endloop
 endfacet
facet normal -1 -0 0
  outer loop
   vertex 2.0476923 3.84602547 0.300000995
   vertex 2.0476923 1.84602547 9.99999997e-07
   vertex 2.0476923 1.84602547 0.300000995
  endloop
 endfacet
facet normal 0 0 1
  outer loop
   vertex 8.0476923 2.37282038 0.300000995
   vertex 9.0476923 2.37282038 0.300000995
   vertex 8.0476923 3.34602547 0.300000995
  endloop
 endfacet
facet normal -0 0 1
  outer loop
   vertex 8.0476923 3.34602547 0.300000995
   vertex 9.0476923 2.37282038 0.300000995
   vertex 9.0476923 3.34602547 0.300000995
  endloop
 endfacet
facet normal 0 0 1
  outer loop
   vertex 8.0476923 3.34602547 0.300000995
   vertex 9.0476923 3.34602547 0.300000995
   vertex 11.0476923 3.84602547 0.300000995
  endloop
 endfacet
facet normal 0 0 1
  outer loop
   vertex 11.0476923 3.84602547 0.300000995
   vertex 9.0476923 3.34602547 0.300000995
   vertex 10.0476923 3.34602547 0.300000995
  endloop
 endfacet
facet normal 0 0 1
  outer loop
   vertex 11.0476923 3.84602547 0.300000995
   vertex 10.0476923 3.34602547 0.300000995
   vertex 11.0476923 1.84602547 0.300000995
  endloop
 endfacet
facet normal 0 0 1
  outer loop
   vertex 11.0476923 1.84602547 0.300000995
   vertex 10.0476923 3.34602547 0.300000995
   vertex 10.0476923 2.34602547 0.300000995
  endloop
 endfacet
facet normal 0 0 1
  outer loop
   vertex 11.0476923 1.84602547 0.300000995
   vertex 10.0476923 2.34602547 0.300000995
   vertex 9.59769249 2.17282033 0.300000995
  endloop
 endfacet
facet normal 0 0 1
  outer loop
   vertex 9.59769249 2.17282033 0.300000995
   vertex 10.0476923 2.34602547 0.300000995
   vertex 9.59769249 2.34602547 0.300000995
  endloop
 endfacet
facet normal 0 0 1
  outer loop
   vertex 9.59769249 2.17282033 0.300000995
   vertex 7.59769201 2.17282033 0.300000995
   vertex 11.0476923 1.84602547 0.300000995
  endloop
 endfacet
facet normal 0 0 1
  outer loop
   vertex 11.0476923 1.84602547 0.300000995
   vertex 7.59769201 2.17282033 0.300000995
   vertex 7.5476923 2.17282033 0.300000995
  endloop
 endfacet
facet normal 0 0 1
  outer loop
   vertex 11.0476923 1.84602547 0.300000995
   vertex 7.5476923 2.17282033 0.300000995
   vertex 5.5476923 2.17282033 0.300000995
  endloop
 endfacet
facet normal 0 0 1
  outer loop
   vertex 7.59769201 2.34602547 0.300000995
   vertex 7.5476923 2.34602547 0.300000995
   vertex 7.59769201 2.17282033 0.300000995
  endloop
 endfacet
facet normal 0 0 1
  outer loop
   vertex 7.59769201 2.17282033 0.300000995
   vertex 7.5476923 2.34602547 0.300000995
   vertex 7.5476923 2.17282033 0.300000995
  endloop
 endfacet
facet normal 0 0 1
  outer loop
   vertex 5.5476923 2.34602547 0.300000995
   vertex 5.49769211 2.34602547 0.300000995
   vertex 5.5476923 2.17282033 0.300000995
  endloop
 endfacet
facet normal 0 0 1
  outer loop
   vertex 5.5476923 2.17282033 0.300000995
   vertex 5.49769211 2.34602547 0.300000995
   vertex 5.49769211 2.17282033 0.300000995
  endloop
 endfacet
facet normal 0 0 1
  outer loop
   vertex 5.5476923 2.17282033 0.300000995
   vertex 5.49769211 2.17282033 0.300000995
   vertex 2.0476923 1.84602547 0.300000995
  endloop
 endfacet
facet normal 0 0 1
  outer loop
   vertex 2.0476923 1.84602547 0.300000995
   vertex 5.49769211 2.17282033 0.300000995
   vertex 3.49769211 2.17282033 0.300000995
  endloop
 endfacet
facet normal 0 0 1
  outer loop
   vertex 2.0476923 1.84602547 0.300000995
   vertex 3.49769211 2.17282033 0.300000995
   vertex 3.0476923 2.34602547 0.300000995
  endloop
 endfacet
facet normal -0 0 1
  outer loop
   vertex 3.0476923 2.34602547 0.300000995
   vertex 3.49769211 2.17282033 0.300000995
   vertex 3.49769211 2.34602547 0.300000995
  endloop
 endfacet
facet normal 0 -0 1
  outer loop
   vertex 3.0476923 2.34602547 0.300000995
   vertex 3.0476923 3.34602547 0.300000995
   vertex 2.0476923 1.84602547 0.300000995
  endloop
 endfacet
facet normal 0 0 1
  outer loop
   vertex 2.0476923 1.84602547 0.300000995
   vertex 3.0476923 3.34602547 0.300000995
   vertex 2.0476923 3.84602547 0.300000995
  endloop
 endfacet
facet normal 0 0 1
  outer loop
   vertex 2.0476923 3.84602547 0.300000995
   vertex 3.0476923 3.34602547 0.300000995
   vertex 4.0476923 3.34602547 0.300000995
  endloop
 endfacet
facet normal 0 0 1
  outer loop
   vertex 2.0476923 3.84602547 0.300000995
   vertex 4.0476923 3.34602547 0.300000995
   vertex 5.0476923 3.34602547 0.300000995
  endloop
 endfacet
facet normal 0 0 1
  outer loop
   vertex 5.0476923 3.34602547 0.300000995
   vertex 4.0476923 3.34602547 0.300000995
   vertex 5.0476923 2.37282038 0.300000995
  endloop
 endfacet
facet normal 0 0 1
  outer loop
   vertex 5.0476923 2.37282038 0.300000995
   vertex 4.0476923 3.34602547 0.300000995
   vertex 4.0476923 2.37282038 0.300000995
  endloop
 endfacet
facet normal 0 -0 1
  outer loop
   vertex 5.0476923 3.34602547 0.300000995
   vertex 6.0476923 3.34602547 0.300000995
   vertex 2.0476923 3.84602547 0.300000995
  endloop
 endfacet
facet normal 0 0 1
  outer loop
   vertex 2.0476923 3.84602547 0.300000995
   vertex 6.0476923 3.34602547 0.300000995
   vertex 7.0476923 3.34602547 0.300000995
  endloop
 endfacet
facet normal -0 0 1
  outer loop
   vertex 2.0476923 3.84602547 0.300000995
   vertex 7.0476923 3.34602547 0.300000995
   vertex 11.0476923 3.84602547 0.300000995
  endloop
 endfacet
facet normal 0 0 1
  outer loop
   vertex 11.0476923 3.84602547 0.300000995
   vertex 7.0476923 3.34602547 0.300000995
   vertex 8.0476923 3.34602547 0.300000995
  endloop
 endfacet
facet normal 0 0 1
  outer loop
   vertex 6.0476923 2.37282038 0.300000995
   vertex 7.0476923 2.37282038 0.300000995
   vertex 6.0476923 3.34602547 0.300000995
  endloop
 endfacet
facet normal -0 0 1
  outer loop
   vertex 6.0476923 3.34602547 0.300000995
   vertex 7.0476923 2.37282038 0.300000995
   vertex 7.0476923 3.34602547 0.300000995
  endloop
 endfacet
facet normal 0 0 1
  outer loop
   vertex 2.0476923 1.84602547 0.300000995
   vertex 11.0476923 1.84602547 0.300000995
   vertex 5.5476923 2.17282033 0.300000995
  endloop
 endfacet
facet normal 0 0 -1
  outer loop
   vertex 7.0476923 3.34602547 9.99999997e-07
   vertex 11.0476923 3.84602547 9.99999997e-07
   vertex 8.0476923 3.34602547 9.99999997e-07
  endloop
 endfacet
facet normal 0 0 -1
  outer loop
   vertex 8.0476923 3.34602547 9.99999997e-07
   vertex 11.0476923 3.84602547 9.99999997e-07
   vertex 9.0476923 3.34602547 9.99999997e-07
  endloop
 endfacet
facet normal 0 0 -1
  outer loop
   vertex 8.0476923 3.34602547 9.99999997e-07
   vertex 9.0476923 3.34602547 9.99999997e-07
   vertex 8.0476923 2.34602547 9.99999997e-07
  endloop
 endfacet
facet normal 0 0 -1
  outer loop
   vertex 8.0476923 2.34602547 9.99999997e-07
   vertex 9.0476923 3.34602547 9.99999997e-07
   vertex 9.0476923 2.34602547 9.99999997e-07
  endloop
 endfacet
facet normal 0 0 -1
  outer loop
   vertex 8.0476923 2.34602547 9.99999997e-07
   vertex 9.0476923 2.34602547 9.99999997e-07
   vertex 11.0476923 1.84602547 9.99999997e-07
  endloop
 endfacet
facet normal 0 0 -1
  outer loop
   vertex 11.0476923 1.84602547 9.99999997e-07
   vertex 9.0476923 2.34602547 9.99999997e-07
   vertex 10.0476923 2.34602547 9.99999997e-07
  endloop
 endfacet
facet normal 0 0 -1
  outer loop
   vertex 11.0476923 1.84602547 9.99999997e-07
   vertex 10.0476923 2.34602547 9.99999997e-07
   vertex 10.0476923 3.34602547 9.99999997e-07
  endloop
 endfacet
facet normal 0 0 -1
  outer loop
   vertex 7.0476923 2.34602547 9.99999997e-07
   vertex 6.0476923 2.34602547 9.99999997e-07
   vertex 7.0476923 3.34602547 9.99999997e-07
  endloop
 endfacet
facet normal -0 0 -1
  outer loop
   vertex 7.0476923 3.34602547 9.99999997e-07
   vertex 6.0476923 2.34602547 9.99999997e-07
   vertex 6.0476923 3.34602547 9.99999997e-07
  endloop
 endfacet
facet normal 0 0 -1
  outer loop
   vertex 7.0476923 3.34602547 9.99999997e-07
   vertex 6.0476923 3.34602547 9.99999997e-07
   vertex 11.0476923 3.84602547 9.99999997e-07
  endloop
 endfacet
facet normal -0 0 -1
  outer loop
   vertex 11.0476923 3.84602547 9.99999997e-07
   vertex 6.0476923 3.34602547 9.99999997e-07
   vertex 2.0476923 3.84602547 9.99999997e-07
  endloop
 endfacet
facet normal 0 0 -1
  outer loop
   vertex 2.0476923 3.84602547 9.99999997e-07
   vertex 6.0476923 3.34602547 9.99999997e-07
   vertex 5.0476923 3.34602547 9.99999997e-07
  endloop
 endfacet
facet normal 0 0 -1
  outer loop
   vertex 2.0476923 3.84602547 9.99999997e-07
   vertex 5.0476923 3.34602547 9.99999997e-07
   vertex 4.0476923 3.34602547 9.99999997e-07
  endloop
 endfacet
facet normal 0 0 -1
  outer loop
   vertex 4.0476923 3.34602547 9.99999997e-07
   vertex 5.0476923 3.34602547 9.99999997e-07
   vertex 4.0476923 2.34602547 9.99999997e-07
  endloop
 endfacet
facet normal 0 0 -1
  outer loop
   vertex 4.0476923 2.34602547 9.99999997e-07
   vertex 5.0476923 3.34602547 9.99999997e-07
   vertex 5.0476923 2.34602547 9.99999997e-07
  endloop
 endfacet
facet normal 0 -0 -1
  outer loop
   vertex 4.0476923 2.34602547 9.99999997e-07
   vertex 5.0476923 2.34602547 9.99999997e-07
   vertex 2.0476923 1.84602547 9.99999997e-07
  endloop
 endfacet
facet normal 0 0 -1
  outer loop
   vertex 2.0476923 1.84602547 9.99999997e-07
   vertex 5.0476923 2.34602547 9.99999997e-07
   vertex 6.0476923 2.34602547 9.99999997e-07
  endloop
 endfacet
facet normal 0 0 -1
  outer loop
   vertex 2.0476923 1.84602547 9.99999997e-07
   vertex 6.0476923 2.34602547 9.99999997e-07
   vertex 7.0476923 2.34602547 9.99999997e-07
  endloop
 endfacet
facet normal 0 0 -1
  outer loop
   vertex 2.0476923 1.84602547 9.99999997e-07
   vertex 7.0476923 2.34602547 9.99999997e-07
   vertex 11.0476923 1.84602547 9.99999997e-07
  endloop
 endfacet
facet normal 0 0 -1
  outer loop
   vertex 11.0476923 1.84602547 9.99999997e-07
   vertex 7.0476923 2.34602547 9.99999997e-07
   vertex 8.0476923 2.34602547 9.99999997e-07
  endloop
 endfacet
facet normal 0 -0 -1
  outer loop
   vertex 3.0476923 3.34602547 9.99999997e-07
   vertex 3.0476923 2.34602547 9.99999997e-07
   vertex 2.0476923 1.84602547 9.99999997e-07
  endloop
 endfacet
facet normal 0 0 -1
  outer loop
   vertex 2.0476923 1.84602547 9.99999997e-07
   vertex 3.0476923 2.34602547 9.99999997e-07
   vertex 4.0476923 2.34602547 9.99999997e-07
  endloop
 endfacet
facet normal 0 0 -1
  outer loop
   vertex 4.0476923 3.34602547 9.99999997e-07
   vertex 3.0476923 3.34602547 9.99999997e-07
   vertex 2.0476923 3.84602547 9.99999997e-07
  endloop
 endfacet
facet normal 0 0 -1
  outer loop
   vertex 2.0476923 3.84602547 9.99999997e-07
   vertex 3.0476923 3.34602547 9.99999997e-07
   vertex 2.0476923 1.84602547 9.99999997e-07
  endloop
 endfacet
facet normal 0 0 -1
  outer loop
   vertex 11.0476923 1.84602547 9.99999997e-07
   vertex 10.0476923 3.34602547 9.99999997e-07
   vertex 11.0476923 3.84602547 9.99999997e-07
  endloop
 endfacet
facet normal 0 0 -1
  outer loop
   vertex 11.0476923 3.84602547 9.99999997e-07
   vertex 10.0476923 3.34602547 9.99999997e-07
   vertex 9.0476923 3.34602547 9.99999997e-07
  endloop
 endfacet
facet normal 0 0.500000238 -0.866025269
  outer loop
   vertex 7.0476923 2.34602547 0.284530938
   vertex 7.0476923 2.37282038 0.300000995
   vertex 7.5476923 2.34602547 0.284530938
  endloop
 endfacet
facet normal -1.39567415e-08 0.5 -0.866025388
  outer loop
   vertex 7.5476923 2.34602547 0.284530938
   vertex 7.0476923 2.37282038 0.300000995
   vertex 7.5476923 3.26205087 0.81339848
  endloop
 endfacet
facet normal 0 0.5 -0.866025388
  outer loop
   vertex 7.5476923 3.26205087 0.81339848
   vertex 7.0476923 2.37282038 0.300000995
   vertex 6.0476923 2.37282038 0.300000995
  endloop
 endfacet
facet normal 0 0.5 -0.866025388
  outer loop
   vertex 7.5476923 3.26205087 0.81339848
   vertex 6.0476923 2.37282038 0.300000995
   vertex 5.5476923 3.26205087 0.81339848
  endloop
 endfacet
facet normal 1.39567415e-08 0.5 -0.866025388
  outer loop
   vertex 5.5476923 3.26205087 0.81339848
   vertex 6.0476923 2.37282038 0.300000995
   vertex 5.5476923 2.34602547 0.284530938
  endloop
 endfacet
facet normal 0 0.500000238 -0.866025269
  outer loop
   vertex 5.5476923 2.34602547 0.284530938
   vertex 6.0476923 2.37282038 0.300000995
   vertex 6.0476923 2.34602547 0.284530938
  endloop
 endfacet
facet normal -1 0 0
  outer loop
   vertex 5.5476923 2.34602547 0.284530938
   vertex 5.5476923 2.34602547 0.300000995
   vertex 5.5476923 3.26205087 0.81339848
  endloop
 endfacet
facet normal -1 -0 0
  outer loop
   vertex 5.5476923 3.26205087 0.81339848
   vertex 5.5476923 2.34602547 0.300000995
   vertex 5.5476923 3.21205091 0.900000989
  endloop
 endfacet
facet normal -1 0 0
  outer loop
   vertex 5.5476923 3.21205091 0.900000989
   vertex 5.5476923 2.34602547 0.300000995
   vertex 5.5476923 2.17282033 0.300000995
  endloop
 endfacet
facet normal 0 0.866025507 0.499999791
  outer loop
   vertex 7.5476923 3.26205087 0.81339848
   vertex 5.5476923 3.26205087 0.81339848
   vertex 7.5476923 3.21205091 0.900000989
  endloop
 endfacet
facet normal 0 0.866025507 0.499999791
  outer loop
   vertex 7.5476923 3.21205091 0.900000989
   vertex 5.5476923 3.26205087 0.81339848
   vertex 5.5476923 3.21205091 0.900000989
  endloop
 endfacet
facet normal 1 0 0
  outer loop
   vertex 7.5476923 2.34602547 0.284530938
   vertex 7.5476923 3.26205087 0.81339848
   vertex 7.5476923 2.34602547 0.300000995
  endloop
 endfacet
facet normal 1 0 0
  outer loop
   vertex 7.5476923 2.34602547 0.300000995
   vertex 7.5476923 3.26205087 0.81339848
   vertex 7.5476923 3.21205091 0.900000989
  endloop
 endfacet
facet normal 1 0 -0
  outer loop
   vertex 7.5476923 2.34602547 0.300000995
   vertex 7.5476923 3.21205091 0.900000989
   vertex 7.5476923 2.17282033 0.300000995
  endloop
 endfacet
facet normal 0 -0.49999997 0.866025448
  outer loop
   vertex 5.5476923 2.17282033 0.300000995
   vertex 7.5476923 2.17282033 0.300000995
   vertex 5.5476923 3.21205091 0.900000989
  endloop
 endfacet
facet normal 0 -0.49999997 0.866025448
  outer loop
   vertex 5.5476923 3.21205091 0.900000989
   vertex 7.5476923 2.17282033 0.300000995
   vertex 7.5476923 3.21205091 0.900000989
  endloop
 endfacet
facet normal 0 0.500000238 -0.866025269
  outer loop
   vertex 5.0476923 2.34602547 0.284530938
   vertex 5.0476923 2.37282038 0.300000995
   vertex 5.49769211 2.34602547 0.284530938
  endloop
 endfacet
facet normal -1.55074975e-08 0.5 -0.866025388
  outer loop
   vertex 5.49769211 2.34602547 0.284530938
   vertex 5.0476923 2.37282038 0.300000995
   vertex 5.49769211 3.26205087 0.81339848
  endloop
 endfacet
facet normal 0 0.5 -0.866025388
  outer loop
   vertex 5.49769211 3.26205087 0.81339848
   vertex 5.0476923 2.37282038 0.300000995
   vertex 4.0476923 2.37282038 0.300000995
  endloop
 endfacet
facet normal 0 0.5 -0.866025388
  outer loop
   vertex 5.49769211 3.26205087 0.81339848
   vertex 4.0476923 2.37282038 0.300000995
   vertex 3.49769211 3.26205087 0.81339848
  endloop
 endfacet
facet normal 1.26879423e-08 0.5 -0.866025388
  outer loop
   vertex 3.49769211 3.26205087 0.81339848
   vertex 4.0476923 2.37282038 0.300000995
   vertex 3.49769211 2.34602547 0.284530938
  endloop
 endfacet
facet normal 0 0.500000238 -0.866025269
  outer loop
   vertex 3.49769211 2.34602547 0.284530938
   vertex 4.0476923 2.37282038 0.300000995
   vertex 4.0476923 2.34602547 0.284530938
  endloop
 endfacet
facet normal -1 0 0
  outer loop
   vertex 3.49769211 2.34602547 0.284530938
   vertex 3.49769211 2.34602547 0.300000995
   vertex 3.49769211 3.26205087 0.81339848
  endloop
 endfacet
facet normal -1 -0 0
  outer loop
   vertex 3.49769211 3.26205087 0.81339848
   vertex 3.49769211 2.34602547 0.300000995
   vertex 3.49769211 3.21205091 0.900000989
  endloop
 endfacet
facet normal -1 0 0
  outer loop
   vertex 3.49769211 3.21205091 0.900000989
   vertex 3.49769211 2.34602547 0.300000995
   vertex 3.49769211 2.17282033 0.300000995
  endloop
 endfacet
facet normal 0 0.866025507 0.499999791
  outer loop
   vertex 5.49769211 3.26205087 0.81339848
   vertex 3.49769211 3.26205087 0.81339848
   vertex 5.49769211 3.21205091 0.900000989
  endloop
 endfacet
facet normal 0 0.866025507 0.499999791
  outer loop
   vertex 5.49769211 3.21205091 0.900000989
   vertex 3.49769211 3.26205087 0.81339848
   vertex 3.49769211 3.21205091 0.900000989
  endloop
 endfacet
facet normal 1 0 0
  outer loop
   vertex 5.49769211 2.34602547 0.284530938
   vertex 5.49769211 3.26205087 0.81339848
   vertex 5.49769211 2.34602547 0.300000995
  endloop
 endfacet
facet normal 1 0 0
  outer loop
   vertex 5.49769211 2.34602547 0.300000995
   vertex 5.49769211 3.26205087 0.81339848
   vertex 5.49769211 3.21205091 0.900000989
  endloop
 endfacet
facet normal 1 0 -0
  outer loop
   vertex 5.49769211 2.34602547 0.300000995
   vertex 5.49769211 3.21205091 0.900000989
   vertex 5.49769211 2.17282033 0.300000995
  endloop
 endfacet
facet normal 0 -0.49999997 0.866025448
  outer loop
   vertex 3.49769211 2.17282033 0.300000995
   vertex 5.49769211 2.17282033 0.300000995
   vertex 3.49769211 3.21205091 0.900000989
  endloop
 endfacet
facet normal 0 -0.49999997 0.866025448
  outer loop
   vertex 3.49769211 3.21205091 0.900000989
   vertex 5.49769211 2.17282033 0.300000995
   vertex 5.49769211 3.21205091 0.900000989
  endloop
 endfacet
facet normal 0 0.500000238 -0.866025269
  outer loop
   vertex 9.0476923 2.34602547 0.284530938
   vertex 9.0476923 2.37282038 0.300000995
   vertex 9.59769249 2.34602547 0.284530938
  endloop
 endfacet
facet normal -1.26879423e-08 0.5 -0.866025388
  outer loop
   vertex 9.59769249 2.34602547 0.284530938
   vertex 9.0476923 2.37282038 0.300000995
   vertex 9.59769249 3.26205087 0.81339848
  endloop
 endfacet
facet normal 0 0.5 -0.866025388
  outer loop
   vertex 9.59769249 3.26205087 0.81339848
   vertex 9.0476923 2.37282038 0.300000995
   vertex 7.59769201 3.26205087 0.81339848
  endloop
 endfacet
facet normal 0 0.5 -0.866025388
  outer loop
   vertex 7.59769201 3.26205087 0.81339848
   vertex 9.0476923 2.37282038 0.300000995
   vertex 8.0476923 2.37282038 0.300000995
  endloop
 endfacet
facet normal 1.55074797e-08 0.5 -0.866025388
  outer loop
   vertex 7.59769201 3.26205087 0.81339848
   vertex 8.0476923 2.37282038 0.300000995
   vertex 7.59769201 2.34602547 0.284530938
  endloop
 endfacet
facet normal 0 0.500000238 -0.866025269
  outer loop
   vertex 7.59769201 2.34602547 0.284530938
   vertex 8.0476923 2.37282038 0.300000995
   vertex 8.0476923 2.34602547 0.284530938
  endloop
 endfacet
facet normal -1 0 0
  outer loop
   vertex 7.59769201 2.34602547 0.284530938
   vertex 7.59769201 2.34602547 0.300000995
   vertex 7.59769201 3.26205087 0.81339848
  endloop
 endfacet
facet normal -1 -0 0
  outer loop
   vertex 7.59769201 3.26205087 0.81339848
   vertex 7.59769201 2.34602547 0.300000995
   vertex 7.59769201 3.21205091 0.900000989
  endloop
 endfacet
facet normal -1 0 0
  outer loop
   vertex 7.59769201 3.21205091 0.900000989
   vertex 7.59769201 2.34602547 0.300000995
   vertex 7.59769201 2.17282033 0.300000995
  endloop
 endfacet
facet normal 0 0.866025507 0.499999791
  outer loop
   vertex 9.59769249 3.26205087 0.81339848
   vertex 7.59769201 3.26205087 0.81339848
   vertex 9.59769249 3.21205091 0.900000989
  endloop
 endfacet
facet normal 0 0.866025507 0.499999791
  outer loop
   vertex 9.59769249 3.21205091 0.900000989
   vertex 7.59769201 3.26205087 0.81339848
   vertex 7.59769201 3.21205091 0.900000989
  endloop
 endfacet
facet normal 1 0 0
  outer loop
   vertex 9.59769249 2.34602547 0.284530938
   vertex 9.59769249 3.26205087 0.81339848
   vertex 9.59769249 2.34602547 0.300000995
  endloop
 endfacet
facet normal 1 0 0
  outer loop
   vertex 9.59769249 2.34602547 0.300000995
   vertex 9.59769249 3.26205087 0.81339848
   vertex 9.59769249 3.21205091 0.900000989
  endloop
 endfacet
facet normal 1 0 -0
  outer loop
   vertex 9.59769249 2.34602547 0.300000995
   vertex 9.59769249 3.21205091 0.900000989
   vertex 9.59769249 2.17282033 0.300000995
  endloop
 endfacet
facet normal 0 -0.49999997 0.866025448
  outer loop
   vertex 7.59769201 2.17282033 0.300000995
   vertex 9.59769249 2.17282033 0.300000995
   vertex 7.59769201 3.21205091 0.900000989
  endloop
 endfacet
facet normal 0 -0.49999997 0.866025448
  outer loop
   vertex 7.59769201 3.21205091 0.900000989
   vertex 9.59769249 2.17282033 0.300000995
   vertex 9.59769249 3.21205091 0.900000989
  endloop
 endfacet
endsolid MATLAB_1
